      <svg width="189.255615" height="125.717041" viewBox="0 0 189.256 125.717" fill="none" xmlns="http://www.w3.org/2000/svg" xmlns:xlink="http://www.w3.org/1999/xlink">
                            <desc>
                                    Created with Pixso.
                            </desc>
                            <defs/>
                            <path id="+250% к депозиту" d="M59.49 12.89C61.36 13.21 62.37 14.32 61.79 17.67C59.93 28.42 48.02 28.23 46.13 39.19L45.34 43.76L62.26 46.69L63.18 41.37L52.11 39.45C52.1 39.18 52.15 38.91 52.2 38.65C53.25 32.53 65.66 30.18 67.68 18.47C68.71 12.51 66.32 8.59 60.57 7.6C54.83 6.6 51.26 9.5 50.23 15.46L49.6 19.07L55.14 20.03L55.83 16.04C56.29 13.38 57.63 12.57 59.49 12.89ZM91.94 22.66L88.6 42.03C87.57 47.99 90.12 51.94 95.87 52.93C101.62 53.92 105.34 51.06 106.37 45.1L109.72 25.73C110.75 19.77 108.2 15.82 102.45 14.83C96.7 13.84 92.97 16.7 91.94 22.66ZM113.76 23.09L111.65 35.33C110.99 39.16 112.59 41.63 116.26 42.26C119.93 42.89 122.27 41.11 122.93 37.27L125.04 25.04C125.71 21.2 124.1 18.74 120.43 18.1C116.76 17.47 114.42 19.26 113.76 23.09ZM73.78 36.29L68.25 35.34L67.71 38.42C66.68 44.38 69.08 48.3 74.82 49.3C80.57 50.29 84.14 47.4 85.17 41.44L86.6 33.14C87.55 27.66 85.89 24.25 81.58 23.5C79.24 23.1 77.37 23.76 76 25.33L78.02 16.53L88.18 18.28L89.1 12.96L73.67 10.3L68.87 31.72L74.41 32.67L74.6 31.56C75.06 28.9 76.4 28.09 78.27 28.41C80.13 28.73 81.12 29.94 80.67 32.6L79.25 40.8C78.79 43.46 77.45 44.22 75.59 43.89C73.73 43.57 72.72 42.41 73.18 39.75L73.78 36.29ZM135.07 20.9L113.95 55.62L117.41 56.21L138.53 21.5L135.07 20.9ZM160.48 48.36L163.61 64.19L169.63 65.23L165.05 43.18L176.06 27.98L170.21 26.97L159.74 41.88L162.54 25.65L156.69 24.64L150.25 61.89L156.11 62.9L158.09 51.46L160.48 48.36ZM115.33 36.24L117.53 23.46C117.82 21.81 118.63 21.24 119.85 21.45C121.02 21.66 121.65 22.48 121.37 24.13L119.16 36.9C118.87 38.55 118.01 39.11 116.84 38.91C115.62 38.7 115.04 37.88 115.33 36.24ZM94.39 43.41L97.86 23.3C98.32 20.64 99.67 19.83 101.53 20.15C103.39 20.47 104.39 21.69 103.93 24.35L100.45 44.46C99.99 47.12 98.65 47.93 96.79 47.61C94.92 47.29 93.93 46.07 94.39 43.41ZM38.3 21.23L39.54 14.05L35.39 13.33L34.15 20.51L27.02 19.28L26.3 23.43L33.43 24.67L32.17 31.96L36.32 32.67L37.58 25.38L44.71 26.61L45.43 22.46L38.3 21.23ZM129.87 39.9L127.76 52.14C127.1 55.97 128.7 58.44 132.37 59.07C136.04 59.71 138.38 57.92 139.04 54.09L141.16 41.85C141.82 38.02 140.22 35.55 136.54 34.91C132.87 34.28 130.54 36.07 129.87 39.9ZM131.44 53.05L133.64 40.28C133.93 38.63 134.74 38.05 135.97 38.27C137.14 38.47 137.76 39.29 137.48 40.94L135.27 53.71C134.99 55.36 134.12 55.92 132.95 55.72C131.73 55.51 131.15 54.7 131.44 53.05ZM74.83 74.5L71.48 93.87C70.45 99.83 73.01 103.78 78.75 104.77C84.5 105.77 88.23 102.9 89.26 96.94L92.6 77.57C93.63 71.61 91.08 67.67 85.33 66.67C79.59 65.68 75.86 68.54 74.83 74.5ZM107.65 80.39L107.29 82.47C106.78 85.45 105.28 86.18 103.1 85.8L101.34 85.5L100.42 90.82L101.86 91.07C104.52 91.52 105.47 93 104.87 96.46L104.37 99.39C103.8 102.69 102.47 103.39 100.61 103.07C98.75 102.75 97.75 101.53 98.21 98.87L98.98 94.4L93.45 93.45L92.74 97.55C91.71 103.51 94.1 107.43 99.85 108.42C105.6 109.41 109.17 106.52 110.19 100.56L110.7 97.63C111.35 93.86 110.66 90.89 107.95 89.1C110.98 88.42 112.69 86.14 113.37 82.15L113.54 81.19C114.57 75.23 112.18 71.31 106.43 70.32C100.68 69.33 97.24 72.13 96.21 78.09L95.73 80.86L101.11 81.78L101.63 78.75C102.09 76.09 103.49 75.29 105.35 75.61C107.21 75.93 108.23 77.04 107.65 80.39ZM18.19 99.03L23.99 100.03L25.76 89.81L23.2 89.37L28.74 57.34L12.35 54.51L6.32 81.47C5.84 83.63 5.28 84.96 4.05 86.06L1.76 85.67L3.05e-5 95.88L5.69 96.87L6.55 91.86L19.06 94.02L18.19 99.03ZM37.69 75.05L39.49 64.67L49.6 66.42L50.52 61.1L34.55 58.34L28.12 95.59L44.08 98.35L45 93.03L34.89 91.28L36.78 80.37L44.81 81.76L45.73 76.44L37.69 75.05ZM53.56 99.98L59.08 68.06L65.73 69.21L60.21 101.13L66.17 102.16L72.61 64.91L54.14 61.73L47.71 98.97L53.56 99.98ZM118.63 111.22L126.47 94.99L130.45 86.25L125.92 112.48L131.18 113.39L137.62 76.14L131.18 75.03L123.73 89.58L120.19 97.41L124.26 73.84L119.05 72.94L112.61 110.18L118.63 111.22ZM140.05 76.56L139.13 81.89L145.25 82.94L139.74 114.87L145.59 115.88L151.11 83.95L157.23 85.01L158.14 79.69L140.05 76.56ZM168.91 110.15L179.99 83.46L173.87 82.4L169 94.72L166.12 103.15L165.82 94.11L164.82 80.84L159.02 79.84L162.14 109.97L162.04 110.28C161.09 112.91 159.3 113.15 156.35 112.42L155.45 117.64C163.5 119.58 166.37 116.62 168.91 110.15ZM77.27 95.26L80.75 75.14C81.21 72.48 82.55 71.67 84.41 72C86.28 72.32 87.27 73.53 86.81 76.19L83.34 96.3C82.88 98.97 81.53 99.77 79.67 99.45C77.81 99.13 76.81 97.92 77.27 95.26ZM12.09 82.35L16.91 60.77L21.86 61.63L17.24 88.34L9.58 87.02C10.7 86.28 11.44 85.15 12.09 82.35Z" fill="#FFFFFF" fill-opacity="1.000000" fill-rule="evenodd"/>
                        </svg>