  <svg width="97.518311" height="86.521484" viewBox="0 0 97.5183 86.5215" fill="none" xmlns="http://www.w3.org/2000/svg" xmlns:xlink="http://www.w3.org/1999/xlink">
                            <desc>
                                    Created with Pixso.
                            </desc>
                            <defs/>
                            <g opacity="0.400000">
                                <path id="25 FS" d="M75.16 10.19C76.29 11.71 76.27 13.21 73.54 15.24C64.79 21.76 56.29 13.42 47.37 20.06L43.64 22.84L53.9 36.61L58.23 33.38L51.52 24.38C51.71 24.17 51.92 24.01 52.14 23.85C57.12 20.14 67.73 26.97 77.26 19.88C82.11 16.26 83.08 11.77 79.59 7.1C76.11 2.42 71.53 2.06 66.68 5.67L63.73 7.87L67.09 12.37L70.34 9.95C72.5 8.34 74.03 8.68 75.16 10.19ZM69.42 37L66.06 32.5L63.55 34.37C58.7 37.98 57.73 42.47 61.22 47.15C64.7 51.83 69.28 52.19 74.13 48.57L80.89 43.54C85.35 40.22 86.49 36.6 83.88 33.09C82.46 31.19 80.65 30.38 78.57 30.58L86.09 25.58L92.26 33.85L96.59 30.63L87.23 18.07L69 30.3L72.36 34.81L73.27 34.13C75.43 32.52 76.97 32.86 78.1 34.37C79.22 35.89 79.11 37.45 76.95 39.07L70.28 44.04C68.11 45.65 66.62 45.28 65.5 43.76C64.37 42.25 64.44 40.71 66.6 39.1L69.42 37ZM48.08 55.18C44.63 50.55 40.08 50.23 35.23 53.85C26.57 60.3 32.34 70.48 26.1 75.13C23.94 76.74 22.45 76.37 21.32 74.85C20.19 73.34 20.26 71.8 22.42 70.19L24.59 68.58L21.23 64.07L19.37 65.46C14.52 69.07 13.56 73.56 17.04 78.24C20.53 82.92 25.11 83.28 29.95 79.66C38.61 73.21 32.85 63.03 39.08 58.38C41.25 56.77 42.72 57.02 43.84 58.54C44.97 60.05 44.8 61.53 42.63 63.15L41.38 64.08L44.73 68.58L45.68 67.87C50.53 64.26 51.53 59.81 48.08 55.18ZM21.95 48.94L31.08 42.14L36.92 49.97L41.25 46.75L31.87 34.15L1.55 56.73L5.1 61.5L17.62 52.17L22.2 58.32L26.53 55.09L21.95 48.94Z" fill="#FFFFFF" fill-opacity="1.000000" fill-rule="evenodd"/>
                            </g>
                        </svg>