    <svg class="textsvg" width="41.347046" height="126.454956" viewBox="0 0 41.347 126.455" fill="none" xmlns="http://www.w3.org/2000/svg" xmlns:xlink="http://www.w3.org/1999/xlink">
                            <desc>
                                    Created with Pixso.
                            </desc>
                            <defs/>
                            <path id="ничего" d="M31.45 107.79L11.8 108.21C5.76 108.34 2.37 111.6 2.49 117.43C2.62 123.27 6.14 126.38 12.19 126.25L31.84 125.83C37.89 125.7 41.27 122.44 41.15 116.61C41.02 110.78 37.5 107.66 31.45 107.79ZM0.55 6.75L16.75 6.41L16.9 13.15L0.7 13.5L0.83 19.55L38.62 18.74L38.49 12.69L22.29 13.04L22.15 6.29L38.35 5.94L38.22 0L0.43 0.81L0.55 6.75ZM1.05 29.95L18.49 34.55L27.83 36.78L1.21 37.35L1.32 42.7L39.12 41.89L38.98 35.35L23.27 30.83L14.91 28.85L38.83 28.33L38.71 23.04L0.92 23.85L1.05 29.95ZM39.59 64.12L39.46 58.18L24.13 58.51C21.59 58.56 20.22 57.4 20.18 55.51C20.14 53.62 21.29 52.03 23.83 51.98L39.32 51.64L39.2 45.71L23.22 46.05C18.03 46.16 14.58 48.77 14.68 53.63C14.72 55.25 15.47 57.39 16.9 58.66L1.67 58.99L1.8 64.93L39.59 64.12ZM23.89 74.77L34.41 74.54L34.63 84.8L40.03 84.69L39.69 68.49L1.89 69.3L2.24 85.5L7.64 85.38L7.42 75.12L18.49 74.89L18.66 83.04L24.06 82.92L23.89 74.77ZM2.32 89.23L2.45 95.17L34.84 94.48L35.05 104.19L40.45 104.08L40.11 88.42L2.32 89.23ZM11.55 114.16L31.96 113.72C34.66 113.67 35.71 114.83 35.75 116.72C35.79 118.61 34.79 119.82 32.09 119.88L11.68 120.32C8.98 120.37 7.93 119.21 7.89 117.32C7.85 115.43 8.85 114.22 11.55 114.16Z" fill="#FFFFFF" fill-opacity="1.000000" fill-rule="evenodd"/>
                        </svg>