    <svg width="205.000366" height="205.011597" viewBox="0 0 205 205.012" fill="none" xmlns="http://www.w3.org/2000/svg" xmlns:xlink="http://www.w3.org/1999/xlink">
                            <desc>
                                    Created with Pixso.
                            </desc>
                            <defs/>
                            <path id="100% до $100 +100 FS" d="M187.14 94.92L171.28 83.31C166.39 79.74 161.72 80.27 158.28 84.97C154.84 89.68 155.74 94.29 160.62 97.86L176.49 109.47C181.37 113.04 186.04 112.51 189.48 107.81C192.93 103.1 192.02 98.49 187.14 94.92ZM174.49 112.19L158.63 100.59C153.75 97.01 149.08 97.54 145.64 102.25C142.19 106.96 143.1 111.57 147.98 115.14L163.84 126.75C168.72 130.32 173.4 129.79 176.84 125.08C180.28 120.38 179.38 115.77 174.49 112.19ZM121.34 184.84L105.47 173.23C100.59 169.66 95.92 170.19 92.48 174.9C89.03 179.6 89.94 184.22 94.82 187.79L110.69 199.39C115.57 202.97 120.24 202.44 123.68 197.73C127.12 193.02 126.22 188.41 121.34 184.84ZM164.41 131.55L154.39 124.21C151.25 121.92 148.33 122.25 146.13 125.26C143.93 128.27 144.49 131.16 147.63 133.45L157.65 140.79C160.79 143.08 163.71 142.75 165.91 139.74C168.11 136.73 167.55 133.84 164.41 131.55ZM200.81 83.54L197.41 81.06L194.7 84.76L171.43 67.73L167.92 72.53L198.43 94.85L200.79 91.62C199.28 89.38 198.1 87.25 200.81 83.54ZM156.89 151.61L135.19 117.26L133.12 120.09L154.82 154.44L156.89 151.61ZM99.2 157.85L95.72 162.6L104.09 168.72L105.62 166.63L131.86 185.83L141.68 172.4L120.21 155.02C118.48 153.63 117.54 152.53 117.1 150.94L118.47 149.07L110.11 142.94L106.69 147.61L110.79 150.61L103.3 160.85L99.2 157.85ZM151.94 127.1L162.4 134.76C163.75 135.75 163.9 136.73 163.17 137.73C162.47 138.69 161.45 138.88 160.1 137.89L149.64 130.24C148.29 129.25 148.17 128.23 148.88 127.27C149.61 126.27 150.59 126.12 151.94 127.1ZM167.46 87.88L183.94 99.93C186.11 101.53 186.24 103.09 185.12 104.62C184.01 106.14 182.48 106.49 180.3 104.9L163.83 92.85C161.65 91.25 161.52 89.69 162.64 88.16C163.75 86.64 165.28 86.28 167.46 87.88ZM154.82 105.16L171.29 117.21C173.47 118.81 173.6 120.37 172.48 121.89C171.37 123.42 169.84 123.77 167.66 122.18L151.18 110.12C149 108.53 148.88 106.97 149.99 105.44C151.11 103.92 152.64 103.56 154.82 105.16ZM101.66 177.8L118.13 189.86C120.31 191.45 120.44 193.02 119.32 194.54C118.21 196.07 116.68 196.42 114.5 194.82L98.03 182.77C95.85 181.18 95.72 179.61 96.84 178.09C97.95 176.56 99.48 176.21 101.66 177.8ZM116.85 159.79L134.03 173.7L131.07 177.76L109.19 161.75L113.78 155.47C113.95 156.8 114.63 157.97 116.85 159.79ZM142.19 138.51L132.17 131.17C129.03 128.88 126.11 129.21 123.91 132.22C121.71 135.23 122.27 138.11 125.41 140.41L135.43 147.75C138.57 150.04 141.49 149.7 143.69 146.7C145.89 143.69 145.33 140.8 142.19 138.51ZM129.72 134.06L140.18 141.72C141.53 142.7 141.68 143.69 140.95 144.69C140.25 145.65 139.23 145.84 137.88 144.85L127.42 137.2C126.07 136.21 125.95 135.19 126.65 134.23C127.39 133.23 128.37 133.07 129.72 134.06ZM139.07 83.88C140.78 79.98 139.41 76.37 135.32 73.37C126.6 67 119.44 76.14 113.17 71.55C110.99 69.96 110.9 68.42 112.02 66.9C113.14 65.37 114.62 64.99 116.8 66.58L119.2 68.34L122.51 63.8L120.42 62.27C116.28 59.24 112.35 59.04 109.13 61.97L106.91 60.35L104.04 64.27L106.26 65.9C104.47 69.81 105.82 73.54 109.96 76.57C118.68 82.95 125.84 73.8 132.12 78.39C134.29 79.99 134.48 81.46 133.37 82.99C132.25 84.51 130.79 84.78 128.61 83.18L127.34 82.26L124.03 86.79L124.99 87.49C129.13 90.52 133.02 90.69 136.2 87.8L138.47 89.46L141.34 85.54L139.07 83.88ZM110.66 107.99L94.8 96.38C89.91 92.81 85.24 93.34 81.8 98.05C78.36 102.75 79.26 107.36 84.14 110.94L100.01 122.54C104.89 126.12 109.56 125.59 113 120.88C116.45 116.17 115.54 111.56 110.66 107.99ZM98.01 125.27L82.15 113.66C77.27 110.09 72.6 110.62 69.16 115.32C65.71 120.03 66.62 124.64 71.5 128.21L87.36 139.82C92.24 143.39 96.92 142.86 100.36 138.16C103.8 133.45 102.9 128.84 98.01 125.27ZM124.33 96.62L120.93 94.13L118.22 97.83L94.95 80.8L91.44 85.6L121.95 107.92L124.31 104.7C122.8 102.46 121.62 100.32 124.33 96.62ZM90.98 100.95L107.46 113.01C109.63 114.6 109.76 116.16 108.65 117.69C107.53 119.22 106 119.57 103.82 117.97L87.35 105.92C85.17 104.33 85.04 102.76 86.16 101.24C87.27 99.71 88.8 99.36 90.98 100.95ZM78.34 118.23L94.81 130.28C96.99 131.88 97.12 133.44 96 134.97C94.89 136.49 93.36 136.85 91.18 135.25L74.7 123.2C72.52 121.6 72.4 120.04 73.51 118.51C74.63 116.99 76.16 116.64 78.34 118.23ZM78.52 60.46L62.66 48.85C57.78 45.28 53.11 45.81 49.67 50.52C46.22 55.22 47.13 59.84 52.01 63.41L67.87 75.01C72.75 78.59 77.42 78.06 80.87 73.35C84.31 68.64 83.4 64.03 78.52 60.46ZM65.88 77.74L50.02 66.13C45.14 62.56 40.47 63.09 37.02 67.8C33.58 72.5 34.49 77.11 39.37 80.69L55.23 92.29C60.11 95.86 64.78 95.33 68.22 90.63C71.67 85.92 70.76 81.31 65.88 77.74ZM39.99 129.22C43.4 124.55 42.36 120.12 37.48 116.55C28.77 110.17 20.73 118.68 14.46 114.08C12.28 112.49 12.2 110.96 13.31 109.43C14.43 107.91 15.92 107.52 18.09 109.12L20.27 110.71L23.59 106.18L21.72 104.81C16.84 101.24 12.26 101.64 8.82 106.34C5.37 111.05 6.38 115.53 11.26 119.1C19.97 125.48 28.01 116.97 34.28 121.56C36.46 123.16 36.65 124.63 35.53 126.16C34.42 127.69 32.95 127.95 30.77 126.36L29.51 125.43L26.19 129.96L27.15 130.67C32.03 134.24 36.57 133.88 39.99 129.22ZM92.2 49.09L88.8 46.6L86.09 50.3L62.82 33.28L59.31 38.07L89.81 60.39L92.17 57.17C90.67 54.93 89.49 52.79 92.2 49.09ZM38.26 102.41L47.45 109.14L41.68 117.03L46.04 120.21L55.32 107.53L24.81 85.21L21.31 90L33.9 99.22L29.37 105.41L33.73 108.6L38.26 102.41ZM58.85 53.42L75.32 65.48C77.5 67.07 77.63 68.64 76.51 70.16C75.39 71.69 73.86 72.04 71.69 70.44L55.21 58.39C53.03 56.8 52.91 55.23 54.02 53.71C55.14 52.18 56.67 51.83 58.85 53.42ZM46.2 70.7L62.68 82.75C64.86 84.35 64.98 85.91 63.87 87.44C62.75 88.96 61.22 89.32 59.04 87.72L42.57 75.67C40.39 74.07 40.26 72.51 41.38 70.98C42.5 69.46 44.03 69.11 46.2 70.7ZM91.01 30.32L96.89 34.63L99.38 31.23L93.5 26.92L97.77 21.08L94.37 18.59L90.1 24.43L84.13 20.07L81.64 23.46L87.61 27.83L83.34 33.67L86.74 36.16L91.01 30.32Z" fill="#FFFFFF" fill-opacity="1.000000" fill-rule="evenodd"/>
                        </svg>