 <svg width="47.758575" height="95.938477" viewBox="0 0 47.7586 95.9385" fill="none" xmlns="http://www.w3.org/2000/svg" xmlns:xlink="http://www.w3.org/1999/xlink">
                        <desc>
                                Created with Pixso.
                        </desc>
                        <defs/>
                        <path id="50 fs" d="M25.76 84.78L23.91 65.21C23.35 59.19 19.85 56.05 14.04 56.59C8.24 57.14 5.39 60.88 5.96 66.9L7.8 86.47C8.37 92.49 11.87 95.63 17.67 95.09C23.48 94.54 26.33 90.8 25.76 84.78ZM39.72 66.86L45.31 66.34L45.02 63.22C44.45 57.2 41.11 54.04 35.31 54.59C29.5 55.14 26.81 58.86 27.38 64.88L28.17 73.27C28.69 78.81 31.19 81.66 35.54 81.25C37.91 81.03 39.54 79.9 40.45 78.02L40.81 87.05L30.54 88.02L31.05 93.39L46.64 91.92L45.65 69.99L40.06 70.52L40.17 71.65C40.42 74.34 39.34 75.47 37.46 75.65C35.57 75.82 34.29 74.91 34.04 72.23L33.26 63.95C33.01 61.26 34.1 60.18 35.98 60C37.86 59.83 39.14 60.68 39.39 63.37L39.72 66.86ZM17.97 65.39L19.88 85.71C20.14 88.4 19.05 89.53 17.17 89.71C15.29 89.89 14.01 88.98 13.75 86.29L11.84 65.97C11.58 63.28 12.67 62.15 14.55 61.97C16.43 61.79 17.71 62.7 17.97 65.39ZM13.96 41.2C19.71 40.66 22.34 36.94 21.77 30.91C20.76 20.16 9.06 19.8 8.33 12.06C8.08 9.37 9.17 8.29 11.05 8.11C12.93 7.94 14.21 8.79 14.46 11.48L14.71 14.17L20.31 13.64L20.09 11.33C19.52 5.31 16.18 2.15 10.38 2.7C4.57 3.25 1.89 6.97 2.45 12.99C3.47 23.75 15.16 24.11 15.89 31.85C16.15 34.54 15.17 35.66 13.29 35.84C11.41 36.01 10.23 35.09 9.98 32.41L9.83 30.85L4.24 31.37L4.35 32.56C4.92 38.58 8.2 41.74 13.96 41.2ZM32.86 22.11L33.93 33.46L24.2 34.37L24.71 39.75L40.35 38.27L36.8 0.64L30.89 1.2L32.35 16.74L24.72 17.46L25.23 22.83L32.86 22.11Z" fill="#FFFFFF" fill-opacity="1.000000" fill-rule="evenodd"/>
                    </svg>