   <svg width="205.717163" height="204.397339" viewBox="0 0 205.717 204.397" fill="none" xmlns="http://www.w3.org/2000/svg" xmlns:xlink="http://www.w3.org/1999/xlink">
                            <desc>
                                    Created with Pixso.
                            </desc>
                            <defs/>
                            <path id="50% до 200$ к депозиту" d="M91.72 171.73L103.52 158.85C107.15 154.88 107.14 150.7 103.31 147.2C99.49 143.7 95.33 144.05 91.7 148.02L79.9 160.9C76.26 164.87 76.28 169.05 80.1 172.55C83.92 176.05 88.09 175.7 91.72 171.73ZM32.71 117.69L44.51 104.8C48.14 100.84 48.13 96.66 44.31 93.16C40.48 89.66 36.32 90.01 32.69 93.97L20.89 106.86C17.26 110.82 17.27 115 21.09 118.5C24.92 122 29.08 121.65 32.71 117.69ZM75.6 160.94L83.06 152.8C85.39 150.25 85.38 147.63 82.94 145.4C80.49 143.16 77.89 143.38 75.55 145.92L68.1 154.07C65.76 156.61 65.77 159.23 68.22 161.47C70.66 163.7 73.27 163.49 75.6 160.94ZM111.85 170.25L115.53 173.62L117.41 171.57C121.04 167.61 121.14 163.53 117.31 160.02C113.49 156.52 109.43 156.97 105.8 160.94L100.74 166.46C97.4 170.11 97.01 173.45 99.88 176.08C101.43 177.5 103.15 177.9 104.93 177.38L99.19 183L92.43 176.81L89.19 180.35L99.46 189.75L113.33 176.03L109.65 172.66L108.97 173.4C107.34 175.17 105.95 175.13 104.71 174C103.47 172.86 103.31 171.48 104.93 169.71L109.92 164.26C111.54 162.49 112.91 162.56 114.14 163.7C115.38 164.83 115.58 166.18 113.96 167.95L111.85 170.25ZM58.61 152.34L91.07 136.51L88.77 134.4L56.31 150.23L58.61 152.34ZM58.72 100.76L54.86 97.22L48.63 104.02L50.33 105.58L30.81 126.88L41.72 136.87L59.17 119.59C60.57 118.21 61.62 117.48 63.07 117.25L64.6 118.64L70.82 111.85L67.03 108.38L63.99 111.7L55.67 104.08L58.72 100.76ZM80.74 150.35L72.96 158.85C71.96 159.94 71.07 159.98 70.26 159.24C69.48 158.52 69.41 157.61 70.41 156.51L78.19 148.02C79.2 146.92 80.11 146.91 80.89 147.63C81.71 148.37 81.75 149.25 80.74 150.35ZM99.85 155.03L87.6 168.41C85.98 170.18 84.58 170.14 83.34 169.01C82.1 167.87 81.94 166.49 83.56 164.72L95.82 151.34C97.44 149.57 98.83 149.61 100.07 150.74C101.31 151.88 101.47 153.26 99.85 155.03ZM40.85 100.99L28.59 114.37C26.97 116.14 25.58 116.1 24.34 114.96C23.1 113.83 22.94 112.44 24.56 110.67L36.81 97.29C38.43 95.52 39.83 95.56 41.07 96.7C42.3 97.83 42.47 99.22 40.85 100.99ZM55.28 116.16L41.31 129.99L38.02 126.98L54.3 109.21L59.39 113.88C58.21 113.89 57.11 114.38 55.28 116.16ZM71.62 140.63L79.07 132.49C81.41 129.94 81.39 127.32 78.95 125.09C76.51 122.85 73.9 123.06 71.57 125.61L64.11 133.75C61.78 136.3 61.79 138.92 64.23 141.16C66.68 143.39 69.28 143.18 71.62 140.63ZM76.76 130.04L68.98 138.53C67.97 139.63 67.09 139.67 66.28 138.92C65.5 138.21 65.42 137.3 66.43 136.2L74.21 127.71C75.21 126.61 76.13 126.6 76.91 127.32C77.72 128.06 77.76 128.94 76.76 130.04ZM83.89 109.95C87.16 111.84 90.49 110.98 93.54 107.66C100.02 100.58 92.64 93.36 97.31 88.26C98.93 86.49 100.29 86.57 101.53 87.7C102.77 88.84 102.96 90.19 101.34 91.96L99.56 93.9L103.24 97.27L104.8 95.58C107.88 92.21 108.44 88.76 106.16 85.63L107.81 83.82L104.63 80.91L102.97 82.71C99.69 80.75 96.27 81.58 93.19 84.94C86.7 92.02 94.09 99.24 89.42 104.34C87.8 106.11 86.47 106.13 85.23 105C83.99 103.86 83.9 102.54 85.52 100.77L86.46 99.74L82.78 96.37L82.07 97.15C78.99 100.51 78.46 103.93 80.7 107.03L79.02 108.87L82.2 111.79L83.89 109.95ZM127.05 143.95C125.81 142.81 125.58 141.5 127.62 139.27C134.17 132.12 142.99 137.98 149.67 130.69L152.46 127.64L141.2 117.33L137.96 120.87L145.32 127.62C145.2 127.83 145.03 128 144.87 128.18C141.14 132.25 130.73 128.05 123.6 135.84C119.97 139.81 119.88 143.89 123.7 147.39C127.52 150.89 131.58 150.44 135.21 146.47L137.41 144.07L133.73 140.7L131.3 143.35C129.68 145.12 128.29 145.08 127.05 143.95ZM121.49 133.91L133.3 121.03C136.93 117.06 136.91 112.89 133.09 109.38C129.27 105.88 125.1 106.24 121.47 110.2L109.67 123.08C106.04 127.05 106.05 131.23 109.88 134.73C113.7 138.23 117.86 137.88 121.49 133.91ZM107.46 121.06L119.26 108.17C122.89 104.21 122.88 100.03 119.06 96.53C115.23 93.03 111.07 93.38 107.44 97.34L95.64 110.23C92.01 114.19 92.02 118.37 95.84 121.87C99.67 125.38 103.83 125.02 107.46 121.06ZM71.19 71.37L76.44 58.02L72.44 54.36L65.28 73.05L49.75 79.14L53.64 82.7L68.63 76.57L58.74 87.37L62.63 90.94L85.33 66.16L81.43 62.59L74.46 70.2L71.19 71.37ZM129.63 117.21L117.37 130.59C115.75 132.36 114.36 132.32 113.12 131.19C111.88 130.05 111.72 128.67 113.34 126.9L125.59 113.52C127.21 111.75 128.61 111.79 129.85 112.92C131.09 114.06 131.25 115.44 129.63 117.21ZM115.59 104.36L103.34 117.74C101.72 119.51 100.32 119.47 99.08 118.33C97.85 117.2 97.68 115.81 99.3 114.04L111.56 100.66C113.18 98.89 114.57 98.93 115.81 100.07C117.05 101.2 117.22 102.59 115.59 104.36ZM139.47 85.28L151.27 72.4C154.9 68.43 154.88 64.25 151.06 60.75C147.24 57.25 143.07 57.6 139.44 61.57L127.64 74.45C124.01 78.42 124.03 82.6 127.85 86.1C131.67 89.6 135.83 89.25 139.47 85.28ZM117.74 65.12L119 63.74C120.82 61.76 122.29 61.93 123.74 63.26L124.91 64.33L128.15 60.79L127.19 59.92C125.42 58.29 125.42 56.73 127.53 54.43L129.31 52.48C131.32 50.29 132.65 50.4 133.89 51.54C135.13 52.67 135.29 54.06 133.67 55.83L130.95 58.8L134.63 62.17L137.13 59.45C140.76 55.48 140.85 51.4 137.03 47.9C133.2 44.4 129.15 44.85 125.52 48.81L123.73 50.76C121.43 53.27 120.52 55.83 121.69 58.46C119.1 57.52 116.73 58.4 114.3 61.06L113.71 61.7C110.08 65.66 109.99 69.74 113.81 73.24C117.64 76.74 121.56 76.3 125.19 72.34L126.88 70.49L123.3 67.22L121.45 69.24C119.83 71.01 118.4 70.93 117.16 69.8C115.92 68.67 115.7 67.35 117.74 65.12ZM193.61 94.12L189.75 90.59L183.52 97.39L185.22 98.94L165.71 120.25L176.61 130.24L194.06 112.96C195.46 111.57 196.52 110.85 197.97 110.61L199.49 112.01L205.71 105.21L201.93 101.74L198.88 105.07L190.56 97.45L193.61 94.12ZM167.51 102.7L161.19 109.6L154.46 103.44L151.22 106.98L161.84 116.71L184.53 91.93L173.91 82.2L170.67 85.74L177.4 91.9L170.75 99.16L165.41 94.26L162.16 97.8L167.51 102.7ZM167.61 76.43L148.15 97.67L143.73 93.61L163.18 72.37L159.22 68.74L136.52 93.52L148.81 104.77L171.5 79.99L167.61 76.43ZM124.33 36.79L110.66 45.17L103.49 49.8L119.48 32.34L115.97 29.14L93.28 53.91L97.56 57.84L110.12 50.52L116.52 46.37L102.16 62.05L105.63 65.23L128.33 40.45L124.33 36.79ZM91.66 52.43L94.9 48.89L90.83 45.16L110.28 23.92L106.39 20.36L86.94 41.6L82.87 37.87L79.62 41.41L91.66 52.43ZM86.19 13.45L65.09 28.1L69.17 31.83L78.72 24.95L84.92 20.03L80.81 26.93L75.18 37.34L79.04 40.87L91.17 16.83L91.4 16.65C93.37 15.14 94.83 15.82 96.68 17.78L99.86 14.31C94.76 9 91.2 9.83 86.19 13.45ZM147.6 68.58L135.34 81.96C133.72 83.73 132.33 83.69 131.09 82.56C129.85 81.42 129.69 80.04 131.31 78.27L143.56 64.89C145.19 63.12 146.58 63.16 147.82 64.29C149.06 65.43 149.22 66.81 147.6 68.58ZM190.17 109.53L176.2 123.36L172.91 120.34L189.19 102.57L194.28 107.24C193.1 107.26 192 107.75 190.17 109.53Z" fill="#FFFFFF" fill-opacity="1.000000" fill-rule="evenodd"/>
                        </svg>