     <svg width="146.306274" height="165.852417" viewBox="0 0 146.306 165.852" fill="none" xmlns="http://www.w3.org/2000/svg" xmlns:xlink="http://www.w3.org/1999/xlink">
                            <desc>
                                    Created with Pixso.
                            </desc>
                            <defs/>
                            <path id="75% до 100$ к депозиту" d="M11.29 46.4L28.71 45.03C34.07 44.61 36.91 41.54 36.5 36.38C36.1 31.21 32.81 28.63 27.45 29.05L10.03 30.42C4.67 30.84 1.83 33.91 2.24 39.07C2.65 44.24 5.93 46.82 11.29 46.4ZM13.15 107.29L24.15 106.42C27.6 106.15 29.37 104.23 29.11 100.92C28.85 97.62 26.8 96 23.35 96.27L12.35 97.14C8.9 97.41 7.13 99.33 7.39 102.63C7.65 105.94 9.7 107.56 13.15 107.29ZM9.77 129.89L11.02 145.68L15.8 145.3L14.98 134.83L44.3 140.27L43.88 135L14.37 129.53L9.77 129.89ZM31.81 119.85L32.2 124.83L34.97 124.61C40.33 124.19 43.18 121.27 42.78 116.1C42.37 110.93 39.1 108.49 33.74 108.91L26.27 109.5C21.34 109.89 18.77 112.07 19.08 115.94C19.24 118.05 20.22 119.51 21.88 120.34L13.85 120.54L13.13 111.4L8.35 111.78L9.44 125.66L28.94 125.08L28.55 120.11L27.55 120.19C25.16 120.37 24.16 119.39 24.03 117.72C23.9 116.04 24.73 114.92 27.12 114.73L34.49 114.15C36.88 113.96 37.82 114.95 37.96 116.62C38.09 118.3 37.31 119.42 34.92 119.61L31.81 119.85ZM6.59 89.41L41.12 99.98L40.88 96.87L6.34 86.3L6.59 89.41ZM41.85 51.76L41.44 46.55L32.26 47.27L32.44 49.57L3.63 51.83L4.79 66.57L29.34 65.84C31.31 65.78 32.57 65.97 33.79 66.79L33.96 68.85L43.14 68.13L42.74 63.01L38.24 63.36L37.36 52.12L41.85 51.76ZM24.13 103.05L12.64 103.95C11.16 104.07 10.49 103.5 10.4 102.4C10.32 101.34 10.89 100.63 12.37 100.51L23.86 99.6C25.34 99.49 26.02 100.11 26.1 101.16C26.19 102.26 25.61 102.93 24.13 103.05ZM28.63 39.74L10.54 41.16C8.15 41.35 7.16 40.37 7.03 38.7C6.89 37.02 7.72 35.9 10.11 35.71L28.2 34.29C30.59 34.1 31.59 35.08 31.72 36.75C31.85 38.43 31.02 39.55 28.63 39.74ZM28.83 60.68L9.19 61.27L8.84 56.82L32.86 54.93L33.4 61.82C32.52 61.02 31.38 60.63 28.83 60.68ZM24.09 89.72L35.1 88.85C38.54 88.58 40.32 86.66 40.06 83.36C39.8 80.05 37.74 78.43 34.3 78.7L23.29 79.57C19.85 79.84 18.07 81.76 18.33 85.07C18.59 88.37 20.64 89.99 24.09 89.72ZM35.07 85.48L23.59 86.39C22.1 86.5 21.43 85.93 21.35 84.83C21.26 83.78 21.83 83.06 23.32 82.94L34.8 82.04C36.28 81.92 36.96 82.54 37.04 83.59C37.13 84.69 36.56 85.36 35.07 85.48ZM53.7 71.94C54.8 75.56 57.82 77.2 62.32 76.84C71.89 76.09 71.41 65.78 78.3 65.23C80.7 65.05 81.64 66.03 81.77 67.71C81.9 69.38 81.13 70.5 78.73 70.69L76.1 70.9L76.49 75.87L78.79 75.69C83.34 75.33 86.1 73.19 86.57 69.35L89.01 69.16L88.67 64.85L86.23 65.04C85.17 61.37 82.1 59.64 77.55 60C67.98 60.75 68.46 71.06 61.57 71.61C59.18 71.8 58.19 70.91 58.06 69.24C57.93 67.56 58.76 66.53 61.15 66.34L62.54 66.23L62.15 61.26L61.1 61.34C56.55 61.7 53.83 63.84 53.36 67.63L50.87 67.83L51.21 72.13L53.7 71.94ZM64.85 115.11L82.27 113.74C87.63 113.32 90.47 110.26 90.06 105.09C89.65 99.92 86.37 97.34 81.01 97.76L63.59 99.13C58.23 99.55 55.39 102.62 55.8 107.79C56.2 112.95 59.49 115.54 64.85 115.11ZM63.36 96.14L80.77 94.77C86.13 94.35 88.97 91.28 88.57 86.12C88.16 80.95 84.87 78.37 79.52 78.79L62.1 80.16C56.74 80.58 53.9 83.65 54.3 88.81C54.71 93.98 58 96.56 63.36 96.14ZM62.22 130.7L65.96 130.41L65.64 126.34L91.19 124.33L90.78 119.07L57.28 121.7L57.56 125.25C59.87 125.88 61.9 126.64 62.22 130.7ZM71.31 42.49L84.26 36.32L83.84 30.91L65.85 39.7L50.34 33.55L50.75 38.81L65.89 44.56L51.3 45.7L51.71 50.97L85.21 48.33L84.79 43.07L74.5 43.88L71.31 42.49ZM82.19 108.45L64.1 109.88C61.71 110.07 60.72 109.08 60.58 107.41C60.45 105.73 61.28 104.61 63.67 104.42L81.76 103C84.15 102.81 85.14 103.79 85.27 105.47C85.41 107.14 84.58 108.27 82.19 108.45ZM80.69 89.48L62.61 90.9C60.21 91.09 59.22 90.11 59.09 88.44C58.96 86.76 59.78 85.64 62.18 85.45L80.26 84.03C82.66 83.84 83.65 84.82 83.78 86.49C83.91 88.17 83.09 89.29 80.69 89.48ZM111.46 95.53L128.87 94.16C134.23 93.74 137.07 90.67 136.67 85.5C136.26 80.34 132.98 77.75 127.62 78.18L110.2 79.55C104.84 79.97 102 83.03 102.41 88.2C102.81 93.37 106.1 95.95 111.46 95.53ZM109.32 65.97L111.19 65.82C113.87 65.61 114.82 66.74 114.98 68.7L115.1 70.28L119.89 69.9L119.79 68.61C119.6 66.22 120.66 65.07 123.77 64.83L126.4 64.62C129.37 64.39 130.27 65.38 130.4 67.05C130.53 68.73 129.71 69.85 127.31 70.04L123.29 70.36L123.68 75.33L127.37 75.04C132.73 74.62 135.58 71.7 135.17 66.53C134.77 61.36 131.49 58.92 126.13 59.35L123.5 59.55C120.1 59.82 117.7 61.07 116.76 63.79C115.51 61.34 113.17 60.37 109.58 60.65L108.72 60.72C103.36 61.14 100.5 64.06 100.91 69.23C101.32 74.4 104.49 76.75 109.85 76.32L112.34 76.13L111.96 71.3L109.23 71.51C106.84 71.7 105.84 70.67 105.71 69C105.58 67.32 106.31 66.2 109.32 65.97ZM145.01 138.93L144.6 133.71L135.42 134.44L135.6 136.73L106.79 139L107.95 153.74L132.5 153.01C134.47 152.95 135.73 153.14 136.95 153.96L137.11 156.02L146.3 155.29L145.9 150.17L141.4 150.53L140.52 139.28L145.01 138.93ZM120.08 127.4L110.75 128.13L110.03 119.04L105.25 119.41L106.38 133.77L139.87 131.13L138.74 116.78L133.96 117.15L134.67 126.25L124.86 127.02L124.3 119.79L119.51 120.17L120.08 127.4ZM138.07 108.25L109.36 110.51L108.89 104.53L137.6 102.27L137.18 96.91L103.68 99.55L104.99 116.15L138.49 113.52L138.07 108.25ZM133.47 49.74L117.76 46.55L109.36 45.04L132.95 43.19L132.58 38.45L99.08 41.09L99.54 46.88L113.71 50.09L121.23 51.43L100.03 53.1L100.4 57.79L133.89 55.15L133.47 49.74ZM98.91 38.9L103.69 38.52L103.26 33.02L131.97 30.76L131.56 25.49L102.85 27.75L102.41 22.25L97.63 22.63L98.91 38.9ZM121.51 6.67L96.08 2.99L96.51 8.49L108.19 9.98L116.09 10.61L108.37 12.85L97.16 16.62L97.57 21.84L122.83 12.53L123.12 12.56C125.6 12.8 126.2 14.29 126.22 16.98L130.91 16.61C130.81 9.26 127.63 7.44 121.51 6.67ZM128.79 88.87L110.71 90.29C108.31 90.48 107.32 89.5 107.19 87.82C107.06 86.15 107.88 85.02 110.28 84.84L128.37 83.41C130.76 83.22 131.75 84.21 131.88 85.88C132.01 87.56 131.19 88.68 128.79 88.87ZM131.99 147.85L112.35 148.43L112 143.98L136.02 142.09L136.56 148.98C135.68 148.18 134.54 147.79 131.99 147.85Z" fill="#FFFFFF" fill-opacity="1.000000" fill-rule="evenodd"/>
                        </svg>