  <svg width="108.222900" height="100.657898" viewBox="0 0 108.223 100.658" fill="none" xmlns="http://www.w3.org/2000/svg" xmlns:xlink="http://www.w3.org/1999/xlink">
                            <desc>
                                    Created with Pixso.
                            </desc>
                            <defs/>
                            <path id="100 fs" d="M17.89 37.37L33.7 49.05C38.57 52.64 43.24 52.13 46.7 47.44C50.17 42.75 49.28 38.13 44.42 34.54L28.6 22.86C23.74 19.27 19.07 19.78 15.6 24.47C12.14 29.16 13.02 33.78 17.89 37.37ZM30.61 20.15L46.42 31.83C51.28 35.42 55.96 34.91 59.42 30.22C62.89 25.53 62 20.91 57.13 17.32L41.32 5.64C36.46 2.05 31.79 2.56 28.32 7.25C24.86 11.94 25.74 16.56 30.61 20.15ZM4.17 48.68L7.55 51.19L10.28 47.49L33.48 64.62L37 59.85L6.6 37.39L4.22 40.6C5.72 42.85 6.89 44.99 4.17 48.68ZM37.53 44.5L21.11 32.37C18.94 30.77 18.82 29.2 19.95 27.68C21.07 26.16 22.6 25.81 24.77 27.42L41.19 39.54C43.36 41.15 43.48 42.71 42.36 44.23C41.24 45.75 39.71 46.1 37.53 44.5ZM50.25 27.27L33.83 15.15C31.66 13.54 31.54 11.98 32.66 10.46C33.79 8.94 35.32 8.59 37.49 10.19L53.91 22.32C56.08 23.92 56.2 25.49 55.08 27.01C53.96 28.53 52.42 28.88 50.25 27.27ZM64.59 49.03C61.16 53.68 62.18 58.12 67.04 61.72C75.73 68.13 83.8 59.66 90.05 64.28C92.23 65.88 92.3 67.41 91.18 68.94C90.06 70.46 88.57 70.83 86.4 69.23L84.22 67.63L80.89 72.14L82.76 73.52C87.62 77.12 92.2 76.74 95.66 72.04C99.13 67.35 98.14 62.87 93.28 59.28C84.59 52.86 76.52 61.33 70.27 56.71C68.09 55.11 67.91 53.63 69.03 52.11C70.16 50.59 71.62 50.33 73.79 51.93L75.05 52.86L78.39 48.35L77.43 47.64C72.57 44.05 68.03 44.38 64.59 49.03ZM66.2 75.85L57.04 69.08L62.84 61.22L58.5 58.01L49.17 70.65L79.57 93.11L83.1 88.33L70.55 79.06L75.1 72.89L70.76 69.68L66.2 75.85Z" fill="#FFFFFF" fill-opacity="1.000000" fill-rule="evenodd"/>
                        </svg>