 <svg class="wheel-svg" width="814.000000" height="814.000000" viewBox="0 0 814 814" fill="none"
                    xmlns="http://www.w3.org/2000/svg" xmlns:xlink="http://www.w3.org/1999/xlink">
                    <desc>
                        Created with Pixso.
                    </desc>
                    <defs>
                        <linearGradient x1="717.057373" y1="96.722870" x2="116.978973" y2="696.800781"
                            id="paint_linear_21_501_0" gradientUnits="userSpaceOnUse">
                            <stop stop-color="#FFFB90" />
                            <stop offset="0.141500" stop-color="#FBEA78" />
                            <stop offset="0.239200" stop-color="#F8DC65" />
                            <stop offset="0.270300" stop-color="#E6C758" />
                            <stop offset="0.336800" stop-color="#C5A041" />
                            <stop offset="0.397900" stop-color="#AD8330" />
                            <stop offset="0.451000" stop-color="#9E7226" />
                            <stop offset="0.490200" stop-color="#996C22" />
                            <stop offset="0.520000" stop-color="#9D7126" />
                            <stop offset="0.557500" stop-color="#AA8131" />
                            <stop offset="0.599100" stop-color="#BE9B42" />
                            <stop offset="0.643400" stop-color="#DABE5B" />
                            <stop offset="0.686500" stop-color="#FBE878" />
                            <stop offset="0.772400" stop-color="#FFFFAA" />
                            <stop offset="0.833300" stop-color="#FBE878" />
                            <stop offset="1.000000" stop-color="#A4631B" />
                        </linearGradient>
                        <linearGradient x1="125.448303" y1="125.565674" x2="690.872375" y2="690.990295"
                            id="paint_linear_21_502_0" gradientUnits="userSpaceOnUse">
                            <stop stop-color="#FFFB90" />
                            <stop offset="0.141500" stop-color="#FBEA78" />
                            <stop offset="0.239200" stop-color="#F8DC65" />
                            <stop offset="0.270300" stop-color="#E6C758" />
                            <stop offset="0.336800" stop-color="#C5A041" />
                            <stop offset="0.397900" stop-color="#AD8330" />
                            <stop offset="0.451000" stop-color="#9E7226" />
                            <stop offset="0.490200" stop-color="#996C22" />
                            <stop offset="0.520000" stop-color="#9D7126" />
                            <stop offset="0.557500" stop-color="#AA8131" />
                            <stop offset="0.599100" stop-color="#BE9B42" />
                            <stop offset="0.643400" stop-color="#DABE5B" />
                            <stop offset="0.686500" stop-color="#FBE878" />
                            <stop offset="0.772400" stop-color="#FFFFAA" />
                            <stop offset="0.833300" stop-color="#FBE878" />
                            <stop offset="1.000000" stop-color="#A4631B" />
                        </linearGradient>
                        <linearGradient x1="115.172607" y1="698.592712" x2="676.321899" y2="137.443787"
                            id="paint_linear_21_503_0" gradientUnits="userSpaceOnUse">
                            <stop stop-color="#FFFB90" />
                            <stop offset="0.141500" stop-color="#FBEA78" />
                            <stop offset="0.239200" stop-color="#F8DC65" />
                            <stop offset="0.270300" stop-color="#E6C758" />
                            <stop offset="0.336800" stop-color="#C5A041" />
                            <stop offset="0.397900" stop-color="#AD8330" />
                            <stop offset="0.451000" stop-color="#9E7226" />
                            <stop offset="0.490200" stop-color="#996C22" />
                            <stop offset="0.520000" stop-color="#9D7126" />
                            <stop offset="0.557500" stop-color="#AA8131" />
                            <stop offset="0.599100" stop-color="#BE9B42" />
                            <stop offset="0.643400" stop-color="#DABE5B" />
                            <stop offset="0.686500" stop-color="#FBE878" />
                            <stop offset="0.772400" stop-color="#FFFFAA" />
                            <stop offset="0.833300" stop-color="#FBE878" />
                            <stop offset="1.000000" stop-color="#A4631B" />
                        </linearGradient>
                        <linearGradient x1="430.492432" y1="-138.820465" x2="794.816162" y2="266.217133"
                            id="paint_linear_21_505_0" gradientUnits="userSpaceOnUse">
                            <stop stop-color="#EC2224" />
                            <stop offset="1.000000" stop-color="#8E191C" />
                        </linearGradient>
                        <linearGradient x1="465.391998" y1="-92.780640" x2="824.797363" y2="306.789185"
                            id="paint_linear_21_506_0" gradientUnits="userSpaceOnUse">
                            <stop stop-color="#EC2224" />
                            <stop offset="1.000000" stop-color="#8E191C" />
                        </linearGradient>
                        <linearGradient x1="498.047455" y1="-37.901642" x2="846.542053" y2="349.535553"
                            id="paint_linear_21_507_0" gradientUnits="userSpaceOnUse">
                            <stop stop-color="#EC2224" />
                            <stop offset="1.000000" stop-color="#8E191C" />
                        </linearGradient>
                        <linearGradient x1="530.918091" y1="26.921417" x2="859.916870" y2="392.684357"
                            id="paint_linear_21_508_0" gradientUnits="userSpaceOnUse">
                            <stop stop-color="#EC2224" />
                            <stop offset="1.000000" stop-color="#8E191C" />
                        </linearGradient>
                        <linearGradient x1="559.451050" y1="96.775360" x2="865.375610" y2="436.885345"
                            id="paint_linear_21_509_0" gradientUnits="userSpaceOnUse">
                            <stop stop-color="#EC2224" />
                            <stop offset="1.000000" stop-color="#8E191C" />
                        </linearGradient>
                        <linearGradient x1="587.290039" y1="174.838684" x2="861.479980" y2="479.669006"
                            id="paint_linear_21_510_0" gradientUnits="userSpaceOnUse">
                            <stop stop-color="#EC2224" />
                            <stop offset="1.000000" stop-color="#8E191C" />
                        </linearGradient>
                        <linearGradient x1="585.064270" y1="227.464752" x2="859.013306" y2="532.027161"
                            id="paint_linear_21_511_0" gradientUnits="userSpaceOnUse">
                            <stop stop-color="#EC2224" />
                            <stop offset="1.000000" stop-color="#8E191C" />
                        </linearGradient>
                        <linearGradient x1="553.053711" y1="254.035187" x2="857.057251" y2="592.011841"
                            id="paint_linear_21_512_0" gradientUnits="userSpaceOnUse">
                            <stop stop-color="#EC2224" />
                            <stop offset="1.000000" stop-color="#8E191C" />
                        </linearGradient>
                        <linearGradient x1="518.525940" y1="283.411194" x2="847.168701" y2="648.777039"
                            id="paint_linear_21_513_0" gradientUnits="userSpaceOnUse">
                            <stop stop-color="#EC2224" />
                            <stop offset="1.000000" stop-color="#8E191C" />
                        </linearGradient>
                        <linearGradient x1="481.527710" y1="314.944061" x2="828.707764" y2="700.921387"
                            id="paint_linear_21_514_0" gradientUnits="userSpaceOnUse">
                            <stop stop-color="#EC2224" />
                            <stop offset="1.000000" stop-color="#8E191C" />
                        </linearGradient>
                        <linearGradient x1="443.292664" y1="348.277985" x2="802.458740" y2="747.580322"
                            id="paint_linear_21_515_0" gradientUnits="userSpaceOnUse">
                            <stop stop-color="#EC2224" />
                            <stop offset="1.000000" stop-color="#8E191C" />
                        </linearGradient>
                        <linearGradient x1="404.504639" y1="383.320709" x2="768.756531" y2="788.278198"
                            id="paint_linear_21_516_0" gradientUnits="userSpaceOnUse">
                            <stop stop-color="#EC2224" />
                            <stop offset="1.000000" stop-color="#8E191C" />
                        </linearGradient>
                        <linearGradient x1="365.572662" y1="418.017426" x2="728.392090" y2="821.386353"
                            id="paint_linear_21_517_0" gradientUnits="userSpaceOnUse">
                            <stop stop-color="#EC2224" />
                            <stop offset="1.000000" stop-color="#8E191C" />
                        </linearGradient>
                        <linearGradient x1="327.788605" y1="453.018494" x2="682.122375" y2="846.945740"
                            id="paint_linear_21_518_0" gradientUnits="userSpaceOnUse">
                            <stop stop-color="#EC2224" />
                            <stop offset="1.000000" stop-color="#8E191C" />
                        </linearGradient>
                        <linearGradient x1="291.288910" y1="487.063019" x2="630.769043" y2="864.480347"
                            id="paint_linear_21_519_0" gradientUnits="userSpaceOnUse">
                            <stop stop-color="#EC2224" />
                            <stop offset="1.000000" stop-color="#8E191C" />
                        </linearGradient>
                        <linearGradient x1="256.970123" y1="519.337280" x2="575.117676" y2="873.037476"
                            id="paint_linear_21_520_0" gradientUnits="userSpaceOnUse">
                            <stop stop-color="#EC2224" />
                            <stop offset="1.000000" stop-color="#8E191C" />
                        </linearGradient>
                        <linearGradient x1="225.483337" y1="549.829468" x2="516.524841" y2="873.394043"
                            id="paint_linear_21_521_0" gradientUnits="userSpaceOnUse">
                            <stop stop-color="#EC2224" />
                            <stop offset="1.000000" stop-color="#8E191C" />
                        </linearGradient>
                        <linearGradient x1="194.546234" y1="574.430725" x2="456.580627" y2="865.747009"
                            id="paint_linear_21_522_0" gradientUnits="userSpaceOnUse">
                            <stop stop-color="#EC2224" />
                            <stop offset="1.000000" stop-color="#8E191C" />
                        </linearGradient>
                        <linearGradient x1="121.646118" y1="545.100342" x2="411.958466" y2="867.855347"
                            id="paint_linear_21_523_0" gradientUnits="userSpaceOnUse">
                            <stop stop-color="#EC2224" />
                            <stop offset="1.000000" stop-color="#8E191C" />
                        </linearGradient>
                        <linearGradient x1="51.866455" y1="510.634796" x2="368.254242" y2="862.380371"
                            id="paint_linear_21_524_0" gradientUnits="userSpaceOnUse">
                            <stop stop-color="#EC2224" />
                            <stop offset="1.000000" stop-color="#8E191C" />
                        </linearGradient>
                        <linearGradient x1="-13.515656" y1="471.583527" x2="326.107727" y2="849.160522"
                            id="paint_linear_21_525_0" gradientUnits="userSpaceOnUse">
                            <stop stop-color="#EC2224" />
                            <stop offset="1.000000" stop-color="#8E191C" />
                        </linearGradient>
                        <linearGradient x1="-69.200348" y1="433.818634" x2="284.713989" y2="827.287231"
                            id="paint_linear_21_526_0" gradientUnits="userSpaceOnUse">
                            <stop stop-color="#EC2224" />
                            <stop offset="1.000000" stop-color="#8E191C" />
                        </linearGradient>
                        <linearGradient x1="-116.506622" y1="394.263885" x2="245.948761" y2="797.223755"
                            id="paint_linear_21_527_0" gradientUnits="userSpaceOnUse">
                            <stop stop-color="#EC2224" />
                            <stop offset="1.000000" stop-color="#8E191C" />
                        </linearGradient>
                        <linearGradient x1="-154.483887" y1="354.982269" x2="209.919800" y2="760.109619"
                            id="paint_linear_21_528_0" gradientUnits="userSpaceOnUse">
                            <stop stop-color="#EC2224" />
                            <stop offset="1.000000" stop-color="#8E191C" />
                        </linearGradient>
                        <linearGradient x1="-182.127136" y1="317.028534" x2="177.337372" y2="716.660522"
                            id="paint_linear_21_529_0" gradientUnits="userSpaceOnUse">
                            <stop stop-color="#EC2224" />
                            <stop offset="1.000000" stop-color="#8E191C" />
                        </linearGradient>
                        <linearGradient x1="-198.577789" y1="280.156677" x2="149.850189" y2="667.520935"
                            id="paint_linear_21_530_0" gradientUnits="userSpaceOnUse">
                            <stop stop-color="#EC2224" />
                            <stop offset="1.000000" stop-color="#8E191C" />
                        </linearGradient>
                        <linearGradient x1="-202.722015" y1="247.275909" x2="126.258820" y2="613.020996"
                            id="paint_linear_21_531_0" gradientUnits="userSpaceOnUse">
                            <stop stop-color="#EC2224" />
                            <stop offset="1.000000" stop-color="#8E191C" />
                        </linearGradient>
                        <linearGradient x1="-197.156128" y1="215.324829" x2="108.690735" y2="555.350098"
                            id="paint_linear_21_532_0" gradientUnits="userSpaceOnUse">
                            <stop stop-color="#EC2224" />
                            <stop offset="1.000000" stop-color="#8E191C" />
                        </linearGradient>
                        <linearGradient x1="-178.160034" y1="189.323700" x2="95.944000" y2="494.058624"
                            id="paint_linear_21_533_0" gradientUnits="userSpaceOnUse">
                            <stop stop-color="#EC2224" />
                            <stop offset="1.000000" stop-color="#8E191C" />
                        </linearGradient>
                        <linearGradient x1="-175.595612" y1="137.080109" x2="98.277985" y2="441.558990"
                            id="paint_linear_21_534_0" gradientUnits="userSpaceOnUse">
                            <stop stop-color="#EC2224" />
                            <stop offset="1.000000" stop-color="#8E191C" />
                        </linearGradient>
                        <linearGradient x1="-188.070953" y1="61.047729" x2="116.050079" y2="399.154480"
                            id="paint_linear_21_535_0" gradientUnits="userSpaceOnUse">
                            <stop stop-color="#EC2224" />
                            <stop offset="1.000000" stop-color="#8E191C" />
                        </linearGradient>
                        <linearGradient x1="-189.866150" y1="-8.689941" x2="138.843048" y2="356.750427"
                            id="paint_linear_21_536_0" gradientUnits="userSpaceOnUse">
                            <stop stop-color="#EC2224" />
                            <stop offset="1.000000" stop-color="#8E191C" />
                        </linearGradient>
                        <linearGradient x1="-180.211700" y1="-70.645782" x2="167.027863" y2="315.402588"
                            id="paint_linear_21_537_0" gradientUnits="userSpaceOnUse">
                            <stop stop-color="#EC2224" />
                            <stop offset="1.000000" stop-color="#8E191C" />
                        </linearGradient>
                        <linearGradient x1="-159.605194" y1="-123.585480" x2="199.557343" y2="275.713898"
                            id="paint_linear_21_538_0" gradientUnits="userSpaceOnUse">
                            <stop stop-color="#EC2224" />
                            <stop offset="1.000000" stop-color="#8E191C" />
                        </linearGradient>
                        <linearGradient x1="-128.447968" y1="-167.086456" x2="235.950165" y2="238.033173"
                            id="paint_linear_21_539_0" gradientUnits="userSpaceOnUse">
                            <stop stop-color="#EC2224" />
                            <stop offset="1.000000" stop-color="#8E191C" />
                        </linearGradient>
                        <linearGradient x1="-87.385376" y1="-199.443695" x2="275.582306" y2="204.086426"
                            id="paint_linear_21_540_0" gradientUnits="userSpaceOnUse">
                            <stop stop-color="#EC2224" />
                            <stop offset="1.000000" stop-color="#8E191C" />
                        </linearGradient>
                        <linearGradient x1="-37.164764" y1="-220.599670" x2="317.418640" y2="173.609467"
                            id="paint_linear_21_541_0" gradientUnits="userSpaceOnUse">
                            <stop stop-color="#EC2224" />
                            <stop offset="1.000000" stop-color="#8E191C" />
                        </linearGradient>
                        <linearGradient x1="21.481934" y1="-230.033844" x2="360.897552" y2="147.312439"
                            id="paint_linear_21_542_0" gradientUnits="userSpaceOnUse">
                            <stop stop-color="#EC2224" />
                            <stop offset="1.000000" stop-color="#8E191C" />
                        </linearGradient>
                        <linearGradient x1="87.145264" y1="-227.447311" x2="405.409149" y2="126.383484"
                            id="paint_linear_21_543_0" gradientUnits="userSpaceOnUse">
                            <stop stop-color="#EC2224" />
                            <stop offset="1.000000" stop-color="#8E191C" />
                        </linearGradient>
                        <linearGradient x1="158.728027" y1="-213.393402" x2="449.771515" y2="110.172577"
                            id="paint_linear_21_544_0" gradientUnits="userSpaceOnUse">
                            <stop stop-color="#EC2224" />
                            <stop offset="1.000000" stop-color="#8E191C" />
                        </linearGradient>
                        <linearGradient x1="232.467712" y1="-190.394043" x2="494.483368" y2="100.902985"
                            id="paint_linear_21_545_0" gradientUnits="userSpaceOnUse">
                            <stop stop-color="#EC2224" />
                            <stop offset="1.000000" stop-color="#8E191C" />
                        </linearGradient>
                        <linearGradient x1="263.581238" y1="-207.515503" x2="553.956177" y2="115.306763"
                            id="paint_linear_21_546_0" gradientUnits="userSpaceOnUse">
                            <stop stop-color="#EC2224" />
                            <stop offset="1.000000" stop-color="#8E191C" />
                        </linearGradient>
                        <linearGradient x1="294.874146" y1="-215.832367" x2="611.344360" y2="136.003448"
                            id="paint_linear_21_547_0" gradientUnits="userSpaceOnUse">
                            <stop stop-color="#EC2224" />
                            <stop offset="1.000000" stop-color="#8E191C" />
                        </linearGradient>
                        <linearGradient x1="326.079987" y1="-214.781311" x2="665.632935" y2="162.716034"
                            id="paint_linear_21_548_0" gradientUnits="userSpaceOnUse">
                            <stop stop-color="#EC2224" />
                            <stop offset="1.000000" stop-color="#8E191C" />
                        </linearGradient>
                        <linearGradient x1="360.617737" y1="-200.516022" x2="714.535645" y2="192.951569"
                            id="paint_linear_21_549_0" gradientUnits="userSpaceOnUse">
                            <stop stop-color="#EC2224" />
                            <stop offset="1.000000" stop-color="#8E191C" />
                        </linearGradient>
                        <linearGradient x1="395.368408" y1="-174.919556" x2="757.762573" y2="227.968079"
                            id="paint_linear_21_550_0" gradientUnits="userSpaceOnUse">
                            <stop stop-color="#EC2224" />
                            <stop offset="1.000000" stop-color="#8E191C" />
                        </linearGradient>
                    </defs>
                    <path id="Vector"
                        d="M814 407C814 631.78 631.78 814 407 814C182.22 814 0 631.78 0 407C0 182.22 182.22 0 407 0C631.78 0 814 182.22 814 407Z"
                        fill="url(#paint_linear_21_501_0)" fill-opacity="1.000000" fill-rule="evenodd" />
                    <path id="Vector"
                        d="M805.04 407C805.04 626.83 626.83 805.04 407 805.04C187.16 805.04 8.95 626.83 8.95 407C8.95 187.16 187.16 8.95 407 8.95C626.83 8.95 805.04 187.16 805.04 407Z"
                        fill="url(#paint_linear_21_502_0)" fill-opacity="1.000000" fill-rule="evenodd" />
                    <path id="Vector"
                        d="M777.32 407C777.32 611.52 611.52 777.32 407 777.32C202.47 777.32 36.67 611.52 36.67 407C36.67 202.47 202.47 36.67 407 36.67C611.52 36.67 777.32 202.47 777.32 407Z"
                        fill="url(#paint_linear_21_503_0)" fill-opacity="1.000000" fill-rule="evenodd" />
                    <path id="Vector"
                        d="M704.95 166.78C704.95 166.78 704.95 166.01 705.34 164.86C705.34 163.7 705.72 162.16 705.72 160.62C705.72 157.54 706.11 154.46 706.11 154.46C706.11 154.46 703.03 154.08 699.56 154.08C696.48 154.08 693.4 153.69 693.4 153.69C693.4 153.69 693.4 156.77 693.02 159.85C692.63 162.93 692.63 166.01 692.63 166.01C692.63 166.01 695.71 166.4 698.79 166.4C700.33 166.4 701.87 166.78 703.03 166.78C704.18 166.78 704.95 166.78 704.95 166.78Z"
                        fill="url(#paint_linear_21_505_0)" fill-opacity="1.000000" fill-rule="nonzero" />
                    <path id="Vector"
                        d="M736.52 203.74C737.29 200.66 738.06 197.58 738.06 197.58C738.06 197.58 737.29 197.19 736.13 197.19C734.98 196.81 733.44 196.81 731.9 196.42C728.82 196.04 725.74 195.27 725.74 195.27C725.74 195.27 725.35 198.35 724.58 201.43C724.2 202.97 723.81 204.51 723.81 205.66C723.43 206.82 723.43 207.59 723.43 207.59C723.43 207.59 726.51 208.36 729.2 209.13C732.28 209.9 735.36 210.67 735.36 210.67C735.36 210.67 735.75 206.82 736.52 203.74Z"
                        fill="url(#paint_linear_21_506_0)" fill-opacity="1.000000" fill-rule="nonzero" />
                    <path id="Vector"
                        d="M761.15 250.32C762.31 247.24 763.46 244.16 763.46 244.16C763.46 244.16 760.38 243 757.69 241.85C756.15 241.08 754.61 240.69 753.46 240.31C752.3 239.92 751.53 239.92 751.53 239.92C751.53 239.92 751.15 240.69 751.15 241.85C750.76 243 750.38 244.54 749.61 245.7C748.45 248.78 747.3 251.47 747.3 251.47C747.3 251.47 750.38 252.63 753.07 253.4C756.15 254.55 758.84 255.71 758.84 255.71C758.84 255.71 760 253.01 761.15 250.32Z"
                        fill="url(#paint_linear_21_507_0)" fill-opacity="1.000000" fill-rule="nonzero" />
                    <path id="Vector"
                        d="M770.78 302.29C773.47 303.83 776.17 305.37 776.17 305.37C776.17 305.37 777.71 302.67 779.63 299.98C780.4 298.44 781.17 297.28 781.56 296.13C781.94 294.97 782.33 294.2 782.33 294.2C782.33 294.2 779.63 292.66 776.55 291.12C773.86 289.58 770.78 288.43 770.78 288.43C770.78 288.43 769.24 291.12 768.08 294.2C766.54 296.9 765.39 299.59 765.39 299.59C765.39 299.59 766.16 299.98 767.31 300.36C768.08 300.75 769.24 301.52 770.78 302.29Z"
                        fill="url(#paint_linear_21_508_0)" fill-opacity="1.000000" fill-rule="nonzero" />
                    <path id="Vector"
                        d="M777.71 347.71C776.94 348.48 776.55 349.25 776.55 349.25C776.55 349.25 778.86 351.18 781.56 352.72C783.87 354.64 786.56 356.57 786.56 356.57C786.56 356.57 788.49 354.26 790.41 351.56C792.34 348.87 794.26 346.17 794.26 346.17C794.26 346.17 793.49 345.79 792.72 345.02C791.95 344.25 790.41 343.48 789.26 342.32C786.56 340.4 783.87 338.86 783.87 338.86C783.87 338.86 782.33 341.55 780.4 343.86C779.25 345.4 778.48 346.56 777.71 347.71Z"
                        fill="url(#paint_linear_21_509_0)" fill-opacity="1.000000" fill-rule="nonzero" />
                    <path id="Vector"
                        d="M789.26 390.83C789.26 390.83 786.95 393.14 785.02 395.45C782.71 397.76 780.79 399.68 780.79 399.68C780.79 399.68 783.1 401.61 785.41 403.92C786.56 405.07 787.72 406.23 788.49 407C789.26 407.77 789.64 408.54 789.64 408.54C789.64 408.54 790.41 408.15 791.18 407.38C791.95 406.61 793.49 405.46 794.26 404.3C796.57 401.99 798.5 399.68 798.5 399.68C798.5 399.68 796.19 397.37 793.88 395.06C791.57 393.14 789.26 390.83 789.26 390.83Z"
                        fill="url(#paint_linear_21_510_0)" fill-opacity="1.000000" fill-rule="nonzero" />
                    <path id="Vector"
                        d="M792.34 447.8C790.41 445.49 788.1 442.8 788.1 442.8C788.1 442.8 785.79 444.72 783.48 446.65C782.33 447.42 781.17 448.57 780.4 449.34C779.63 450.11 778.86 450.5 778.86 450.5C778.86 450.5 780.79 452.81 782.71 455.12C784.64 457.81 786.56 460.12 786.56 460.12C786.56 460.12 789.26 458.19 791.57 456.27C794.26 454.35 796.57 452.42 796.57 452.42C796.57 452.42 796.19 451.65 795.42 450.88C794.26 450.5 793.11 449.34 792.34 447.8Z"
                        fill="url(#paint_linear_21_511_0)" fill-opacity="1.000000" fill-rule="nonzero" />
                    <path id="Vector"
                        d="M780.79 496.31C780.02 495.15 779.63 494.77 779.63 494.77C779.63 494.77 778.86 495.15 778.09 495.92C776.94 496.69 775.78 497.46 774.24 498.23C771.55 499.77 768.85 501.31 768.85 501.31C768.85 501.31 770.39 504 771.93 506.7C772.7 508.24 773.47 509.39 774.24 510.55C774.63 511.7 775.01 512.09 775.01 512.09C775.01 512.09 775.78 511.7 776.94 511.32C778.09 510.55 779.25 509.78 780.79 509.01C783.48 507.47 786.18 505.54 786.18 505.54C786.18 505.54 784.64 502.85 783.1 500.15C781.94 498.62 781.17 497.46 780.79 496.31Z"
                        fill="url(#paint_linear_21_512_0)" fill-opacity="1.000000" fill-rule="nonzero" />
                    <path id="Vector"
                        d="M764.23 544.42C764.23 544.42 761.54 545.58 758.46 547.12C755.77 548.27 753.07 549.43 753.07 549.43C753.07 549.43 753.46 550.2 753.84 551.35C754.23 552.51 755 553.66 755.38 555.2C756.54 558.28 757.31 560.98 757.31 560.98C757.31 560.98 760.38 559.82 763.46 558.67C765 557.9 766.54 557.51 767.7 557.13C768.85 556.74 769.62 556.36 769.62 556.36C769.62 556.36 768.47 553.28 766.93 550.2C765.39 547.5 764.23 544.42 764.23 544.42Z"
                        fill="url(#paint_linear_21_513_0)" fill-opacity="1.000000" fill-rule="nonzero" />
                    <path id="Vector"
                        d="M741.91 591.77C741.91 591.77 738.83 592.54 736.13 593.7C733.05 594.47 729.97 595.24 729.97 595.24C729.97 595.24 730.74 598.32 731.51 601.01C732.28 604.09 733.05 607.17 733.05 607.17C733.05 607.17 736.13 606.4 739.21 605.63C742.29 604.86 745.37 604.09 745.37 604.09C745.37 604.09 744.6 601.01 743.83 597.93C743.06 594.85 741.91 591.77 741.91 591.77Z"
                        fill="url(#paint_linear_21_514_0)" fill-opacity="1.000000" fill-rule="nonzero" />
                    <path id="Vector"
                        d="M713.81 635.66C713.81 635.66 710.73 636.04 707.65 636.43C704.57 636.81 701.49 637.2 701.49 637.2C701.49 637.2 701.87 640.28 702.26 643.36C702.64 644.9 702.64 646.44 702.64 647.59C702.64 648.75 702.64 649.52 702.64 649.52C702.64 649.52 703.41 649.52 704.57 649.52C705.72 649.52 707.26 649.52 708.8 649.13C711.88 648.75 714.96 648.36 714.96 648.36C714.96 648.36 714.58 645.28 714.19 641.82C714.19 638.74 713.81 635.66 713.81 635.66Z"
                        fill="url(#paint_linear_21_515_0)" fill-opacity="1.000000" fill-rule="nonzero" />
                    <path id="Vector"
                        d="M673 675.69C669.92 675.69 666.84 675.69 666.84 675.69C666.84 675.69 666.84 678.77 666.84 681.85C666.84 684.93 666.46 688.01 666.46 688.01C666.46 688.01 669.54 688.01 672.61 688.4C675.69 688.4 679.16 688.4 679.16 688.4C679.16 688.4 679.16 685.32 679.16 681.85C679.16 678.77 679.16 675.69 679.16 675.69C679.16 675.69 676.08 675.69 673 675.69Z"
                        fill="url(#paint_linear_21_516_0)" fill-opacity="1.000000" fill-rule="nonzero" />
                    <path id="Vector"
                        d="M634.12 709.57C631.04 709.19 627.96 708.42 627.96 708.42C627.96 708.42 627.57 711.5 627.19 714.58C626.81 717.65 626.03 720.73 626.03 720.73C626.03 720.73 629.11 721.12 632.19 721.89C635.27 722.27 638.35 722.66 638.35 722.66C638.35 722.66 638.74 719.58 639.51 716.5C639.89 714.96 639.89 713.42 639.89 712.27C639.89 711.11 639.89 710.34 639.89 710.34C639.89 710.34 639.12 710.34 637.97 710.34C637.2 709.96 635.66 709.96 634.12 709.57Z"
                        fill="url(#paint_linear_21_517_0)" fill-opacity="1.000000" fill-rule="nonzero" />
                    <path id="Vector"
                        d="M584.84 735.75C584.84 735.75 584.07 738.83 583.31 741.91C582.15 744.6 581.38 747.68 581.38 747.68C581.38 747.68 584.46 748.84 587.54 749.99C590.62 750.76 593.7 751.53 593.7 751.53C593.7 751.53 594.47 748.45 595.62 745.37C596.39 742.29 597.16 739.21 597.16 739.21C597.16 739.21 594.08 738.44 591 737.67C587.92 736.9 584.84 735.75 584.84 735.75Z"
                        fill="url(#paint_linear_21_518_0)" fill-opacity="1.000000" fill-rule="nonzero" />
                    <path id="Vector"
                        d="M540.19 758.07C539.03 757.69 538.27 757.31 538.27 757.31C538.27 757.31 537.11 760 535.57 762.69C534.03 765.39 532.88 768.47 532.88 768.47C532.88 768.47 535.57 770.01 538.65 771.16C541.73 772.7 544.42 773.86 544.42 773.86C544.42 773.86 544.81 773.09 545.19 771.93C545.58 770.78 546.35 769.24 547.12 767.7C548.27 764.62 549.43 761.92 549.43 761.92C549.43 761.92 546.73 760.77 543.65 759.61C542.5 759.23 541.34 758.84 540.19 758.07Z"
                        fill="url(#paint_linear_21_519_0)" fill-opacity="1.000000" fill-rule="nonzero" />
                    <path id="Vector"
                        d="M494.77 775.01C492.07 773.47 489.76 771.55 489.76 771.55C489.76 771.55 488.22 774.24 486.68 776.94C485.91 778.09 485.14 779.63 484.37 780.4C483.6 781.17 483.22 781.94 483.22 781.94C483.22 781.94 483.99 782.33 484.76 783.1C485.53 783.87 487.07 784.64 488.22 785.41C490.92 786.95 493.61 788.87 493.61 788.87C493.61 788.87 495.54 786.18 497.08 783.48C497.85 782.33 498.61 780.79 499.38 780.02C499.77 778.86 500.15 778.09 500.15 778.09C500.15 778.09 499.38 777.71 498.61 777.32C497.46 776.55 496.31 775.78 494.77 775.01Z"
                        fill="url(#paint_linear_21_520_0)" fill-opacity="1.000000" fill-rule="nonzero" />
                    <path id="Vector"
                        d="M439.33 780.02C439.33 780.02 438.95 780.79 438.18 781.56C437.41 782.33 436.25 783.48 435.48 784.64C433.56 786.95 431.25 789.26 431.25 789.26C431.25 789.26 433.56 791.57 435.87 793.49C437.02 794.65 438.18 795.8 439.33 796.57C440.1 797.34 440.87 797.73 440.87 797.73C440.87 797.73 442.8 795.42 445.11 792.72C447.03 790.41 448.96 787.72 448.96 787.72C448.96 787.72 446.65 785.79 443.95 783.87C441.64 781.94 439.33 780.02 439.33 780.02Z"
                        fill="url(#paint_linear_21_521_0)" fill-opacity="1.000000" fill-rule="nonzero" />
                    <path id="Vector"
                        d="M392.37 785.41C390.44 783.1 388.13 780.79 388.13 780.79C388.13 780.79 385.82 782.71 383.51 785.02C381.2 786.95 378.89 789.26 378.89 789.26C378.89 789.26 380.82 791.57 383.13 793.88C385.44 796.19 387.36 798.5 387.36 798.5C387.36 798.5 389.67 796.57 391.98 794.26C393.14 793.11 394.29 791.95 395.06 791.18C395.83 790.41 396.6 789.64 396.6 789.64C396.6 789.64 396.22 789.26 395.06 788.49C394.29 787.33 393.52 786.56 392.37 785.41Z"
                        fill="url(#paint_linear_21_522_0)" fill-opacity="1.000000" fill-rule="nonzero" />
                    <path id="Vector"
                        d="M337.7 774.63C337.7 774.63 336.93 775.01 336.16 775.78C335.39 776.55 333.85 777.32 332.7 778.09C330 779.63 327.31 781.17 327.31 781.17C327.31 781.17 328.85 783.87 330.77 786.56C331.54 788.1 332.7 789.26 333.08 790.03C333.85 790.8 334.24 791.57 334.24 791.57C334.24 791.57 336.93 789.64 339.63 788.1C342.32 786.18 344.63 784.25 344.63 784.25C344.63 784.25 342.71 781.56 340.78 779.25C339.24 777.32 337.7 774.63 337.7 774.63Z"
                        fill="url(#paint_linear_21_523_0)" fill-opacity="1.000000" fill-rule="nonzero" />
                    <path id="Vector"
                        d="M288.81 763.46C288.43 762.31 288.04 761.54 288.04 761.54C288.04 761.54 285.35 763.08 282.65 764.23C279.96 765.39 276.88 766.93 276.88 766.93C276.88 766.93 278.04 769.62 279.57 772.7C281.11 775.78 282.27 778.48 282.27 778.48C282.27 778.48 283.04 778.09 284.19 777.71C285.35 777.32 286.5 776.55 288.04 775.78C290.74 774.24 293.43 772.7 293.43 772.7C293.43 772.7 291.89 770.01 290.35 767.31C289.97 766.16 289.58 764.62 288.81 763.46Z"
                        fill="url(#paint_linear_21_524_0)" fill-opacity="1.000000" fill-rule="nonzero" />
                    <path id="Vector"
                        d="M241.08 742.29C241.08 742.29 238 743.45 235.31 744.22C233.77 744.6 232.23 745.37 231.07 745.37C229.92 745.76 229.15 745.76 229.15 745.76C229.15 745.76 229.53 746.53 229.53 747.68C229.92 748.84 230.3 750.38 230.69 751.92C231.84 755 233 757.69 233 757.69C233 757.69 236.08 756.54 239.15 755.77C242.23 754.61 244.93 753.84 244.93 753.84C244.93 753.84 243.77 750.76 242.62 748.07C241.85 744.99 241.08 742.29 241.08 742.29Z"
                        fill="url(#paint_linear_21_525_0)" fill-opacity="1.000000" fill-rule="nonzero" />
                    <path id="Vector"
                        d="M196.81 716.88C196.81 716.88 196.04 716.88 194.88 717.27C193.73 717.65 192.19 717.65 190.65 718.04C187.57 718.42 184.49 718.81 184.49 718.81C184.49 718.81 184.88 721.89 185.26 724.97C185.65 726.51 185.65 728.05 186.03 729.2C186.42 730.36 186.42 731.13 186.42 731.13C186.42 731.13 189.5 730.36 192.96 729.97C196.04 729.2 199.12 728.43 199.12 728.43C199.12 728.43 198.35 725.35 197.58 722.27C197.58 719.96 196.81 716.88 196.81 716.88Z"
                        fill="url(#paint_linear_21_526_0)" fill-opacity="1.000000" fill-rule="nonzero" />
                    <path id="Vector"
                        d="M157.16 691.09C157.16 688.01 157.16 684.93 157.16 684.93C157.16 684.93 154.08 684.93 151 685.32C147.92 685.32 144.84 685.32 144.84 685.32C144.84 685.32 144.84 688.4 144.84 691.48C144.84 694.56 145.23 698.02 145.23 698.02C145.23 698.02 148.31 698.02 151.38 698.02C152.92 698.02 154.46 697.64 155.62 697.64C156.77 697.64 157.54 697.25 157.54 697.25C157.54 697.25 157.54 696.48 157.16 695.33C157.16 694.17 157.16 693.02 157.16 691.09Z"
                        fill="url(#paint_linear_21_527_0)" fill-opacity="1.000000" fill-rule="nonzero" />
                    <path id="Vector"
                        d="M110.58 647.21C109.42 647.21 108.65 646.82 108.65 646.82C108.65 646.82 108.65 647.59 108.27 648.75C108.27 649.9 107.88 651.44 107.88 652.98C107.88 656.06 107.5 659.14 107.5 659.14C107.5 659.14 110.58 659.53 114.04 659.53C117.12 659.53 120.2 659.91 120.2 659.91C120.2 659.91 120.2 656.83 120.59 653.75C120.97 650.67 120.97 647.59 120.97 647.59C120.97 647.59 117.89 647.59 114.81 647.21C113.27 647.59 111.73 647.21 110.58 647.21Z"
                        fill="url(#paint_linear_21_528_0)" fill-opacity="1.000000" fill-rule="nonzero" />
                    <path id="Vector"
                        d="M78.63 604.09C78.63 604.09 77.86 607.17 77.09 610.25C76.32 613.33 75.55 616.41 75.55 616.41C75.55 616.41 76.32 616.8 77.47 616.8C78.63 617.18 80.17 617.18 81.71 617.57C84.79 617.95 87.87 618.72 87.87 618.72C87.87 618.72 88.25 615.64 89.02 612.56C89.41 611.02 89.79 609.48 89.79 608.33C90.18 607.17 90.18 606.4 90.18 606.4C90.18 606.4 87.1 605.63 84.4 604.86C81.71 604.86 78.63 604.09 78.63 604.09Z"
                        fill="url(#paint_linear_21_529_0)" fill-opacity="1.000000" fill-rule="nonzero" />
                    <path id="Vector"
                        d="M54.76 557.9C54.76 557.9 53.61 560.59 52.45 563.67C51.3 566.75 50.14 569.83 50.14 569.83C50.14 569.83 53.22 570.99 55.92 572.14C57.46 572.53 59 573.3 60.15 573.68C61.3 574.07 62.07 574.07 62.07 574.07C62.07 574.07 62.46 573.3 62.46 572.14C62.84 570.99 63.23 569.45 64 568.29C65.15 565.6 66.31 562.52 66.31 562.52C66.31 562.52 63.23 561.36 60.53 560.59C57.84 559.05 54.76 557.9 54.76 557.9Z"
                        fill="url(#paint_linear_21_530_0)" fill-opacity="1.000000" fill-rule="nonzero" />
                    <path id="Vector"
                        d="M42.83 511.7C40.13 510.16 37.44 508.62 37.44 508.62C37.44 508.62 35.9 511.32 33.97 514.01C33.2 515.55 32.43 516.71 32.05 517.86C31.66 519.02 31.28 519.79 31.28 519.79C31.28 519.79 33.97 521.33 37.05 522.87C39.75 524.41 42.83 525.56 42.83 525.56C42.83 525.56 44.37 522.87 45.52 519.79C47.06 517.09 48.22 514.4 48.22 514.4C48.22 514.4 47.45 514.01 46.29 513.63C45.52 513.24 44.37 512.47 42.83 511.7Z"
                        fill="url(#paint_linear_21_531_0)" fill-opacity="1.000000" fill-rule="nonzero" />
                    <path id="Vector"
                        d="M35.9 466.28C36.67 465.51 37.05 464.74 37.05 464.74C37.05 464.74 34.74 462.81 32.05 461.27C29.74 459.35 27.04 457.42 27.04 457.42C27.04 457.42 25.12 459.73 23.19 462.43C21.27 465.12 19.34 467.82 19.34 467.82C19.34 467.82 20.11 468.2 20.88 468.97C21.65 469.74 23.19 470.51 24.35 471.67C27.04 473.59 29.74 475.13 29.74 475.13C29.74 475.13 31.28 472.44 33.2 470.13C34.36 468.59 35.13 467.05 35.9 466.28Z"
                        fill="url(#paint_linear_21_532_0)" fill-opacity="1.000000" fill-rule="nonzero" />
                    <path id="Vector"
                        d="M24.35 422.78C24.35 422.78 26.66 420.47 28.58 418.16C30.89 415.85 32.82 413.92 32.82 413.92C32.82 413.92 30.51 412 28.2 409.69C27.04 408.54 25.89 407.38 25.12 406.61C24.35 405.84 23.96 405.07 23.96 405.07C23.96 405.07 23.19 405.46 22.42 406.23C21.65 407 20.11 408.15 19.34 409.31C17.03 411.62 15.11 413.92 15.11 413.92C15.11 413.92 17.42 416.23 19.73 418.54C22.04 420.85 24.35 422.78 24.35 422.78Z"
                        fill="url(#paint_linear_21_533_0)" fill-opacity="1.000000" fill-rule="nonzero" />
                    <path id="Vector"
                        d="M21.65 365.81C23.58 368.12 25.89 370.81 25.89 370.81C25.89 370.81 28.2 368.88 30.51 366.96C31.66 366.19 32.82 365.04 33.59 364.27C34.36 363.5 35.13 363.11 35.13 363.11C35.13 363.11 33.2 360.8 31.28 358.49C29.35 355.8 27.43 353.49 27.43 353.49C27.43 353.49 24.73 355.41 22.42 357.34C19.73 359.26 17.42 361.19 17.42 361.19C17.42 361.19 17.8 361.96 18.57 362.73C19.34 363.5 20.5 364.65 21.65 365.81Z"
                        fill="url(#paint_linear_21_534_0)" fill-opacity="1.000000" fill-rule="nonzero" />
                    <path id="Vector"
                        d="M33.2 317.69C33.97 318.84 34.36 319.23 34.36 319.23C34.36 319.23 35.13 318.84 35.9 318.07C37.05 317.3 38.21 316.53 39.75 315.76C42.44 314.22 45.14 312.68 45.14 312.68C45.14 312.68 43.6 309.99 42.06 307.29C41.29 305.75 40.52 304.6 39.75 303.44C39.36 302.29 38.98 301.9 38.98 301.9C38.98 301.9 38.21 302.29 37.05 302.67C35.9 303.44 34.74 304.21 33.2 304.98C30.51 306.52 27.81 308.45 27.81 308.45C27.81 308.45 29.35 311.14 30.89 313.84C31.66 315.38 32.43 316.53 33.2 317.69Z"
                        fill="url(#paint_linear_21_535_0)" fill-opacity="1.000000" fill-rule="nonzero" />
                    <path id="Vector"
                        d="M60.53 264.56C60.53 264.56 60.15 263.79 59.76 262.64C59.38 261.48 58.61 260.33 58.23 258.79C57.07 255.71 56.3 253.01 56.3 253.01C56.3 253.01 53.22 254.17 50.14 255.32C48.6 255.71 47.06 256.48 45.91 256.86C44.75 257.25 43.98 257.63 43.98 257.63C43.98 257.63 45.14 260.71 46.68 263.41C47.83 266.1 49.37 269.18 49.37 269.18C49.37 269.18 52.07 268.03 55.15 266.49C57.84 265.72 60.53 264.56 60.53 264.56Z"
                        fill="url(#paint_linear_21_536_0)" fill-opacity="1.000000" fill-rule="nonzero" />
                    <path id="Vector"
                        d="M83.63 218.75C83.63 218.75 82.86 215.67 82.09 212.98C81.32 209.9 80.55 206.82 80.55 206.82C80.55 206.82 77.47 207.59 74.39 208.36C71.31 209.13 68.23 209.9 68.23 209.9C68.23 209.9 69 212.98 69.77 216.06C70.93 219.14 71.7 222.22 71.7 222.22C71.7 222.22 74.78 221.45 77.47 220.29C80.55 219.52 83.63 218.75 83.63 218.75Z"
                        fill="url(#paint_linear_21_537_0)" fill-opacity="1.000000" fill-rule="nonzero" />
                    <path id="Vector"
                        d="M111.35 170.25C110.96 168.71 110.96 167.17 110.96 166.01C110.96 164.86 110.96 164.09 110.96 164.09C110.96 164.09 110.19 164.09 109.04 164.09C107.88 164.09 106.34 164.09 104.81 164.47C101.73 164.86 98.65 165.24 98.65 165.24C98.65 165.24 99.03 168.32 99.42 171.79C99.8 174.87 100.19 177.95 100.19 177.95C100.19 177.95 103.27 177.56 106.34 177.18C109.42 176.79 112.5 176.41 112.5 176.41C112.5 176.41 111.73 173.33 111.35 170.25Z"
                        fill="url(#paint_linear_21_538_0)" fill-opacity="1.000000" fill-rule="nonzero" />
                    <path id="Vector"
                        d="M146.77 132.14C146.77 129.06 147.15 125.98 147.15 125.98C147.15 125.98 144.07 125.98 140.99 125.59C137.91 125.59 134.45 125.59 134.45 125.59C134.45 125.59 134.45 128.67 134.45 132.14C134.45 135.22 134.45 138.3 134.45 138.3C134.45 138.3 137.53 138.3 140.61 138.3C143.69 138.3 146.77 138.3 146.77 138.3C146.77 138.3 146.77 135.22 146.77 132.14Z"
                        fill="url(#paint_linear_21_539_0)" fill-opacity="1.000000" fill-rule="nonzero" />
                    <path id="Vector"
                        d="M186.42 99.42C186.8 96.34 187.57 93.26 187.57 93.26C187.57 93.26 184.49 92.87 181.41 92.1C178.33 91.72 175.25 91.33 175.25 91.33C175.25 91.33 174.87 94.41 174.1 97.49C173.71 99.03 173.71 100.57 173.71 101.73C173.71 102.88 173.71 103.65 173.71 103.65C173.71 103.65 174.48 103.65 175.64 103.65C176.79 103.65 178.33 103.65 179.87 104.04C182.95 104.42 186.03 105.19 186.03 105.19C186.03 105.19 186.03 102.5 186.42 99.42Z"
                        fill="url(#paint_linear_21_540_0)" fill-opacity="1.000000" fill-rule="nonzero" />
                    <path id="Vector"
                        d="M232.23 66.31C232.23 66.31 229.15 65.15 226.07 64C222.99 63.23 219.91 62.46 219.91 62.46C219.91 62.46 219.14 65.54 217.98 68.62C217.21 71.7 216.44 74.78 216.44 74.78C216.44 74.78 219.52 75.55 222.6 76.32C225.68 77.09 228.38 78.24 228.38 78.24C228.38 78.24 229.15 75.16 229.92 72.08C231.46 69 232.23 66.31 232.23 66.31Z"
                        fill="url(#paint_linear_21_541_0)" fill-opacity="1.000000" fill-rule="nonzero" />
                    <path id="Vector"
                        d="M280.35 45.52C280.35 45.52 277.65 43.98 274.57 42.83C271.49 41.29 268.8 40.13 268.8 40.13C268.8 40.13 268.41 40.9 268.03 42.06C267.64 43.21 266.87 44.75 266.1 46.29C264.95 49.37 263.79 52.07 263.79 52.07C263.79 52.07 266.49 53.22 269.57 54.38C271.11 55.15 272.26 55.53 273.42 55.92C274.57 56.3 275.34 56.69 275.34 56.69C275.34 56.69 276.5 53.99 278.04 51.3C279.19 48.22 280.35 45.52 280.35 45.52Z"
                        fill="url(#paint_linear_21_542_0)" fill-opacity="1.000000" fill-rule="nonzero" />
                    <path id="Vector"
                        d="M330.77 31.66C330.77 31.66 330 31.28 329.23 30.51C328.08 29.74 326.92 28.97 325.77 28.2C323.07 26.66 320.38 24.73 320.38 24.73C320.38 24.73 318.84 27.43 316.92 30.12C316.15 31.28 315.38 32.82 314.61 33.59C314.22 34.74 313.84 35.51 313.84 35.51C313.84 35.51 314.61 35.9 315.38 36.28C316.53 37.05 317.69 37.82 319.23 38.59C321.92 40.13 324.23 42.06 324.23 42.06C324.23 42.06 325.77 39.36 327.31 36.67C328.08 35.51 328.85 33.97 329.62 33.2C330.39 32.43 330.77 31.66 330.77 31.66Z"
                        fill="url(#paint_linear_21_543_0)" fill-opacity="1.000000" fill-rule="nonzero" />
                    <path id="Vector"
                        d="M377.74 20.5C376.58 19.34 375.43 18.19 374.27 17.42C373.5 16.65 372.73 16.26 372.73 16.26C372.73 16.26 370.81 18.57 368.5 21.27C366.58 23.58 364.65 26.27 364.65 26.27C364.65 26.27 366.96 28.2 369.65 30.12C371.96 32.05 374.27 33.97 374.27 33.97C374.27 33.97 374.66 33.2 375.43 32.43C376.2 31.66 376.97 30.51 378.12 29.35C380.05 27.04 382.36 24.73 382.36 24.73C382.36 24.73 380.05 22.81 377.74 20.5Z"
                        fill="url(#paint_linear_21_544_0)" fill-opacity="1.000000" fill-rule="nonzero" />
                    <path id="Vector"
                        d="M430.48 20.5C428.17 18.19 426.24 15.88 426.24 15.88C426.24 15.88 423.93 17.8 421.62 20.11C420.47 21.27 419.31 22.42 418.54 23.19C417.77 23.96 417 24.73 417 24.73C417 24.73 417.39 25.12 418.54 25.89C419.31 26.66 420.47 27.81 421.62 28.97C423.55 31.28 425.86 33.59 425.86 33.59C425.86 33.59 428.17 31.66 430.48 29.35C432.79 27.43 435.1 25.12 435.1 25.12C435.1 25.12 432.79 22.81 430.48 20.5Z"
                        fill="url(#paint_linear_21_545_0)" fill-opacity="1.000000" fill-rule="nonzero" />
                    <path id="Vector"
                        d="M482.83 27.04C482.06 25.5 480.91 24.35 480.52 23.58C479.75 22.81 479.37 22.04 479.37 22.04C479.37 22.04 476.67 23.96 473.98 25.5C471.28 27.43 468.97 29.35 468.97 29.35C468.97 29.35 470.9 32.05 472.82 34.36C474.36 37.05 476.29 39.36 476.29 39.36C476.29 39.36 477.06 38.98 477.83 38.21C478.6 37.44 480.14 36.67 481.29 35.9C483.99 34.36 486.68 32.82 486.68 32.82C486.68 32.82 484.76 29.74 482.83 27.04Z"
                        fill="url(#paint_linear_21_546_0)" fill-opacity="1.000000" fill-rule="nonzero" />
                    <path id="Vector"
                        d="M534.03 40.9C532.49 38.21 531.34 35.13 531.34 35.13C531.34 35.13 530.57 35.51 529.41 35.9C528.26 36.28 527.1 37.05 525.56 37.82C522.87 39.36 520.17 40.9 520.17 40.9C520.17 40.9 521.71 43.6 523.25 46.29C524.02 47.45 524.79 48.99 525.18 50.14C525.56 51.3 525.95 52.07 525.95 52.07C525.95 52.07 528.64 50.53 531.34 49.37C534.03 48.22 537.11 46.68 537.11 46.68C537.11 46.68 535.19 43.98 534.03 40.9Z"
                        fill="url(#paint_linear_21_547_0)" fill-opacity="1.000000" fill-rule="nonzero" />
                    <path id="Vector"
                        d="M584.46 67.85C584.46 67.85 584.07 67.08 584.07 65.92C583.69 64.77 583.31 63.23 582.92 61.69C581.77 58.61 580.61 55.92 580.61 55.92C580.61 55.92 577.53 57.07 574.45 57.84C571.37 59 568.68 59.77 568.68 59.77C568.68 59.77 569.83 62.84 570.99 65.54C571.76 68.62 572.91 71.31 572.91 71.31C572.91 71.31 575.99 70.16 578.69 69.39C580.23 69 581.77 68.23 582.92 68.23C583.69 67.85 584.46 67.85 584.46 67.85Z"
                        fill="url(#paint_linear_21_548_0)" fill-opacity="1.000000" fill-rule="nonzero" />
                    <path id="Vector"
                        d="M627.96 88.64C627.57 87.1 627.57 85.56 627.19 84.4C626.81 83.25 626.81 82.48 626.81 82.48C626.81 82.48 623.73 83.25 620.26 83.63C617.18 84.4 614.1 85.17 614.1 85.17C614.1 85.17 614.87 88.25 615.64 91.33C616.41 94.41 616.8 97.11 616.8 97.11C616.8 97.11 617.57 97.11 618.72 96.72C619.88 96.72 621.42 96.34 622.96 95.95C626.03 95.57 629.11 95.18 629.11 95.18C629.11 95.18 628.34 91.72 627.96 88.64Z"
                        fill="url(#paint_linear_21_549_0)" fill-opacity="1.000000" fill-rule="nonzero" />
                    <path id="Vector"
                        d="M669.15 122.13C669.15 119.05 668.77 115.58 668.77 115.58C668.77 115.58 665.69 115.58 662.61 115.58C661.07 115.58 659.53 115.97 658.37 115.97C657.22 115.97 656.45 116.35 656.45 116.35C656.45 116.35 656.45 117.12 656.83 118.28C656.83 119.43 657.22 120.97 657.22 122.51C657.22 125.59 657.22 128.67 657.22 128.67C657.22 128.67 660.3 128.67 663.38 128.29C666.46 128.29 669.54 128.29 669.54 128.29C669.54 128.29 669.15 125.21 669.15 122.13Z"
                        fill="url(#paint_linear_21_550_0)" fill-opacity="1.000000" fill-rule="nonzero" />
                </svg>