<svg width="349.158905" height="89.518555" viewBox="0 0 349.159 89.5186" fill="none" xmlns="http://www.w3.org/2000/svg" xmlns:xlink="http://www.w3.org/1999/xlink">
	<desc>
			Created with Pixso.
	</desc>
	<defs>
		<filter id="filter_1_370_dd" x="0.000000" y="0.000000" width="349.158905" height="89.518555" filterUnits="userSpaceOnUse" color-interpolation-filters="sRGB">
			<feFlood flood-opacity="0" result="BackgroundImageFix"/>
			<feColorMatrix in="SourceAlpha" type="matrix" values="0 0 0 0 0 0 0 0 0 0 0 0 0 0 0 0 0 0 127 0" result="hardAlpha"/>
			<feOffset dx="0" dy="4"/>
			<feGaussianBlur stdDeviation="0"/>
			<feComposite in2="hardAlpha" operator="out" k2="-1" k3="1"/>
			<feColorMatrix type="matrix" values="0 0 0 0 0.7098 0 0 0 0 0.44706 0 0 0 0 0.12157 0 0 0 1 0"/>
			<feBlend mode="normal" in2="BackgroundImageFix" result="effect_dropShadow_1"/>
			<feBlend mode="normal" in="SourceGraphic" in2="effect_dropShadow_1" result="shape"/>
		</filter>
		<linearGradient x1="174.579468" y1="0.000000" x2="174.579468" y2="85.518501" id="paint_linear_1_370_0" gradientUnits="userSpaceOnUse">
			<stop stop-color="#F2B410"/>
			<stop offset="1.000000" stop-color="#F17110"/>
		</linearGradient>
	</defs>
	<g filter="url(#filter_1_370_dd)">
		<path id="Vector" d="M200.57 10.56C201.18 7.51 201.94 3.85 202.22 2.47L202.69 0L223.73 0L219.58 21.03C217.27 32.59 215.38 42.25 215.38 42.44C215.38 42.68 215.52 42.82 215.76 42.82C215.95 42.82 221.47 38.21 228.07 32.59L240.05 22.36L253.31 22.36C264.63 22.36 266.42 22.46 265.85 23.03C265.48 23.41 258.59 29.4 250.52 36.4C242.5 43.39 235.85 49.29 235.76 49.48C235.66 49.82 250 74.28 254.67 81.75L255.95 83.75L243.59 83.75L231.18 83.7L225.05 73.28C221.7 67.52 218.82 62.81 218.68 62.81C218.54 62.81 216.47 64.52 214.11 66.62C209.34 70.8 209.81 69.85 208.02 79.37L207.17 83.75L198.31 83.75C193.45 83.75 189.44 83.6 189.44 83.46C189.44 83.03 202.22 17.93 202.46 16.98C202.64 16.32 202.41 16.17 201.09 16.17L199.48 16.17L200.57 10.56ZM314.81 22.46C315.1 21.22 315.81 17.7 316.37 14.6L317.46 9.04L327.98 9.04C333.78 9.04 338.49 9.13 338.49 9.18C338.49 9.27 337.88 12.56 337.08 16.41C336.32 20.27 335.66 23.74 335.66 24.12C335.66 24.6 337.08 24.74 342.41 24.74L349.15 24.74L347.69 32.45L346.23 40.21L339.3 40.35C333.26 40.44 332.41 40.59 332.17 41.3C330.99 45.49 328.07 62.43 328.26 64C328.64 66.85 330.29 68.04 333.82 68.04C335.38 68.04 337.41 67.71 338.35 67.33C339.3 66.95 340.1 66.66 340.14 66.71C340.19 66.81 340.81 70.04 341.47 73.94C342.46 79.51 342.6 81.18 342.13 81.46C340.76 82.37 335.1 83.84 331.09 84.32C317.83 85.94 308.4 80.13 306.89 69.42C306.28 64.95 306.42 64.71 310.43 64.71L313.82 64.71L314.86 59.81C317.46 47.77 316.32 38.54 311.37 30.59C310.38 29.07 308.97 27.12 308.16 26.26L306.7 24.74L314.34 24.74L314.81 22.46ZM26.7 20.7C31.98 21.88 32.08 21.6 27.5 18.6C25.9 17.51 24.86 16.65 25.24 16.65C26.8 16.65 31.84 18.27 34.44 19.6L37.31 21.08L34.06 21.69C20.9 24.22 12.64 31.21 11.14 41.25C10.57 44.96 11.04 49.39 12.31 51.82C12.93 53.01 12.93 53.29 12.41 53.29C10.99 53.29 10.1 55.1 10.05 57.96C10 59.53 9.86 60.76 9.72 60.67C8.73 60.05 7.22 55.67 7.13 53.1C7.08 51.53 6.89 50.25 6.7 50.29C6.56 50.39 6.14 50.44 5.8 50.44C5.47 50.44 4.39 51.15 3.45 52.05C2.5 52.96 1.56 53.48 1.42 53.24C0.9 52.39 2.74 46.72 4.96 42.2C6.32 39.49 6.98 38.18 6.61 37.74C6.27 37.33 5.03 37.66 2.64 38.3C1.23 38.68 0.05 38.92 0 38.87C-0.09 38.83 0.66 37.59 1.65 36.16C4.25 32.35 8.26 29.31 12.64 27.74C14.67 26.98 16.32 26.17 16.32 25.88C16.32 25.07 14.34 23.41 12.36 22.6C11.37 22.17 10.71 21.65 10.95 21.46C12.64 19.89 21.28 19.51 26.7 20.7ZM244.96 49.72C245.71 49.15 253.31 42.49 261.84 34.97L277.41 21.36L282.13 21.6C290.9 22.08 297.55 24.74 302.41 29.69C308.64 36.02 310.95 44.82 309.2 55.05L308.68 58.05L286.32 58.05C267.88 58.05 263.97 58.15 263.97 58.72C263.97 59.95 265.05 62.57 266.23 64.19C270 69.28 282.22 69.95 289.67 65.43C291.18 64.52 292.46 63.76 292.55 63.76C292.69 63.76 294.67 66.71 296.98 70.28L301.18 76.85L300.14 77.66C298.21 79.13 292.36 81.8 288.92 82.79C283.21 84.37 276.14 84.98 270.71 84.32C267.86 83.97 266.19 83.95 264.78 83.32C262.09 82.13 260.37 78.76 253.21 66.85L243.68 50.86L244.96 49.72ZM89.48 27.4C92.36 24.93 98.59 22.31 102.88 21.74C110.29 20.74 119.39 23.12 123.07 27.02L124.44 28.45L122.79 30.59C117.13 38.06 114.44 46.53 114.44 56.77C114.44 65.14 116.09 71.23 119.91 76.89C121.75 79.7 121.94 80.23 121.61 81.75L121.23 83.51L110.76 83.65C105 83.7 100.29 83.7 100.29 83.6C100.29 83.56 101.8 75.99 103.59 66.85C105.43 57.72 106.89 49.1 106.89 47.72C106.89 42.39 103.92 39.54 98.35 39.49C92.83 39.49 88.64 42.16 86.14 47.25C84.67 50.29 83.3 56.05 79.72 74.32L77.93 83.75L58.87 83.75L62.08 80.61C67.41 75.42 69.63 70.18 69.63 62.52C69.63 57.05 68.78 54.15 65.99 50.39L63.82 47.34L68.92 37.35C71.7 31.88 74.63 26.22 75.38 24.84L76.75 22.36L88.97 22.36L88.68 23.65C88.54 24.41 88.21 25.69 87.97 26.6C87.74 27.5 87.64 28.36 87.79 28.45C87.88 28.59 88.68 28.07 89.48 27.4ZM121.89 47.01C125.38 34.07 134.91 24.74 147.46 22.08C155.81 20.31 166.23 22.88 170.48 27.83C171.28 28.74 172.03 29.5 172.17 29.5C172.31 29.5 172.64 28.26 172.93 26.74C173.21 25.26 173.59 23.65 173.68 23.17C173.92 22.46 174.81 22.36 184.3 22.36C189.96 22.36 194.63 22.5 194.63 22.69C194.63 22.93 191.94 36.73 188.68 53.39L182.74 83.75L162.93 83.75L163.26 81.94C163.4 80.99 163.68 79.7 163.82 79.08C164.06 78.08 163.78 78.18 160.95 80.13C151.23 86.84 137.74 85.84 129.11 77.75C125.57 74.47 123.64 71.37 122.08 66.71C120.48 61.76 120.38 52.67 121.89 47.01ZM12.69 45.96C11.75 33.69 20.85 25.17 37.31 22.88C42.27 22.17 51.7 22.6 57.27 23.79C62.41 24.84 67.5 26.64 67.5 27.4C67.5 27.74 60.8 41.3 60.43 41.78C60.38 41.82 58.97 41.25 57.27 40.49C52.74 38.4 47.41 37.45 41.37 37.68C35.95 37.83 34.53 38.35 33.02 40.73C31.98 42.25 32.64 43.87 34.72 44.96C35.57 45.39 39.81 46.49 44.2 47.39C55.62 49.72 59.67 51.77 62.22 56.53C64.58 60.91 64.34 67.52 61.7 72.47C59.11 77.32 52.97 81.7 45.9 83.75C34.81 86.89 18.64 85.75 8.3 81.08C6.7 80.37 5.52 79.65 5.57 79.51C5.66 79.37 7.36 75.99 9.39 72.09L13.02 64.9L16.28 66.47C21.89 69.23 26.09 70.09 33.54 70.14C40.62 70.18 42.55 69.71 43.68 67.52C45.29 64.57 43.12 63.14 33.87 61.33C23.45 59.24 19.86 57.91 16.65 54.77C14.06 52.29 12.97 49.91 12.69 45.96ZM290.38 45.73C290.38 42.54 287.93 39.16 284.48 37.54C283.16 36.92 281.51 36.68 279.06 36.68C275 36.68 272.6 37.4 270.14 39.4C268.45 40.78 265.38 45.34 265.38 46.49C265.38 46.96 267.98 47.11 277.88 47.11L290.38 47.11L290.38 45.73ZM167.79 46.25C167.08 43.73 164.34 40.59 161.84 39.44C159.01 38.11 154.01 38.25 150.95 39.68C146.28 41.87 143.16 46.34 142.22 52.29C140.81 60.86 144.81 66.85 152.36 67.42C161.04 68.14 167.5 61.9 168.07 52.15C168.21 49.91 168.07 47.44 167.79 46.25Z" fill="url(#paint_linear_1_370_0)" fill-opacity="1.000000" fill-rule="evenodd"/>
	</g>
</svg>
